<?xml version="1.0" encoding="UTF-8" standalone="no"?>
<!DOCTYPE svg PUBLIC "-//W3C//DTD SVG 1.1//EN"
 "http://www.w3.org/Graphics/SVG/1.1/DTD/svg11.dtd">
<!-- Generated by graphviz version 2.43.0 (0)
 -->
<!-- Title: G Pages: 1 -->
<svg width="471pt" height="476pt"
 viewBox="0.00 0.00 471.42 476.00" xmlns="http://www.w3.org/2000/svg" xmlns:xlink="http://www.w3.org/1999/xlink">
<g id="graph0" class="graph" transform="scale(1 1) rotate(0) translate(4 472)">
<title>G</title>
<polygon fill="white" stroke="transparent" points="-4,4 -4,-472 467.42,-472 467.42,4 -4,4"/>
<!-- oscilloscope -->
<g id="node1" class="node">
<title>oscilloscope</title>
<ellipse fill="none" stroke="black" cx="160.38" cy="-450" rx="53.65" ry="18"/>
<text text-anchor="middle" x="160.38" y="-445.8" font-family="Times,serif" font-size="14.00">oscilloscope</text>
</g>
<!-- pc -->
<g id="node2" class="node">
<title>pc</title>
<ellipse fill="none" stroke="black" cx="359.38" cy="-450" rx="27" ry="18"/>
<text text-anchor="middle" x="359.38" y="-445.8" font-family="Times,serif" font-size="14.00">pc</text>
</g>
<!-- usb -->
<g id="node3" class="node">
<title>usb</title>
<ellipse fill="none" stroke="black" cx="259.38" cy="-378" rx="27" ry="18"/>
<text text-anchor="middle" x="259.38" y="-373.8" font-family="Times,serif" font-size="14.00">usb</text>
</g>
<!-- pc&#45;&gt;usb -->
<g id="edge1" class="edge">
<title>pc&#45;&gt;usb</title>
<path fill="none" stroke="red" stroke-dasharray="5,2" d="M332.87,-430.44C318.38,-420.3 300.48,-407.77 285.97,-397.61"/>
<polygon fill="red" stroke="red" points="331.31,-433.62 341.5,-436.49 335.32,-427.88 331.31,-433.62"/>
<polygon fill="red" stroke="red" points="287.64,-394.51 277.44,-391.64 283.63,-400.24 287.64,-394.51"/>
</g>
<!-- snd -->
<g id="node4" class="node">
<title>snd</title>
<ellipse fill="none" stroke="black" cx="250.38" cy="-90" rx="27" ry="18"/>
<text text-anchor="middle" x="250.38" y="-85.8" font-family="Times,serif" font-size="14.00">snd</text>
</g>
<!-- pc&#45;&gt;snd -->
<g id="edge3" class="edge">
<title>pc&#45;&gt;snd</title>
<path fill="none" stroke="green" stroke-dasharray="5,2" d="M392.16,-435.95C409.95,-427.23 430.81,-414.02 443.38,-396 466.52,-362.83 462.38,-347.45 462.38,-307 462.38,-307 462.38,-307 462.38,-233 462.38,-149.25 346.75,-111.75 286.29,-97.87"/>
<polygon fill="green" stroke="green" points="390.27,-432.97 382.67,-440.34 393.21,-439.32 390.27,-432.97"/>
<polygon fill="green" stroke="green" points="286.9,-94.42 276.38,-95.69 285.39,-101.26 286.9,-94.42"/>
</g>
<!-- keys -->
<g id="node5" class="node">
<title>keys</title>
<ellipse fill="none" stroke="black" cx="405.38" cy="-234" rx="27" ry="18"/>
<text text-anchor="middle" x="405.38" y="-229.8" font-family="Times,serif" font-size="14.00">keys</text>
</g>
<!-- pc&#45;&gt;keys -->
<g id="edge5" class="edge">
<title>pc&#45;&gt;keys</title>
<path fill="none" stroke="red" stroke-dasharray="5,2" d="M344.2,-423.98C339.81,-415.41 335.6,-405.57 333.38,-396 329.77,-380.41 329.25,-375.46 333.38,-360 343.7,-321.43 369.09,-282.42 386.78,-258.48"/>
<polygon fill="red" stroke="red" points="341.28,-425.92 349.14,-433.02 347.42,-422.56 341.28,-425.92"/>
<polygon fill="red" stroke="red" points="389.67,-260.46 392.9,-250.37 384.08,-256.24 389.67,-260.46"/>
</g>
<!-- launchpad -->
<g id="node14" class="node">
<title>launchpad</title>
<ellipse fill="none" stroke="black" cx="388.38" cy="-378" rx="46.4" ry="18"/>
<text text-anchor="middle" x="388.38" y="-373.8" font-family="Times,serif" font-size="14.00">launchpad</text>
</g>
<!-- pc&#45;&gt;launchpad -->
<g id="edge26" class="edge">
<title>pc&#45;&gt;launchpad</title>
<path fill="none" stroke="red" stroke-dasharray="5,2" d="M370.13,-423.06C372.53,-417.26 375.08,-411.1 377.49,-405.29"/>
<polygon fill="red" stroke="red" points="366.85,-421.83 366.26,-432.41 373.32,-424.51 366.85,-421.83"/>
<polygon fill="red" stroke="red" points="380.76,-406.53 381.36,-395.96 374.3,-403.86 380.76,-406.53"/>
</g>
<!-- midi -->
<g id="node7" class="node">
<title>midi</title>
<ellipse fill="none" stroke="black" cx="259.38" cy="-306" rx="27" ry="18"/>
<text text-anchor="middle" x="259.38" y="-301.8" font-family="Times,serif" font-size="14.00">midi</text>
</g>
<!-- usb&#45;&gt;midi -->
<g id="edge10" class="edge">
<title>usb&#45;&gt;midi</title>
<path fill="none" stroke="red" stroke-dasharray="5,2" d="M259.38,-349.67C259.38,-344.69 259.38,-339.49 259.38,-334.51"/>
<polygon fill="red" stroke="red" points="255.88,-349.7 259.38,-359.7 262.88,-349.7 255.88,-349.7"/>
<polygon fill="red" stroke="red" points="262.88,-334.1 259.38,-324.1 255.88,-334.1 262.88,-334.1"/>
</g>
<!-- pa -->
<g id="node15" class="node">
<title>pa</title>
<polygon fill="none" stroke="black" points="451.38,-36 397.38,-36 397.38,0 451.38,0 451.38,-36"/>
<text text-anchor="middle" x="424.38" y="-13.8" font-family="Times,serif" font-size="14.00">pa</text>
</g>
<!-- snd&#45;&gt;pa -->
<g id="edge28" class="edge">
<title>snd&#45;&gt;pa</title>
<path fill="none" stroke="green" stroke-dasharray="5,2" d="M273.55,-80.7C299.36,-71.33 342.48,-55.29 387.93,-36.05"/>
<polygon fill="green" stroke="green" points="389.53,-39.17 397.35,-32.03 386.78,-32.73 389.53,-39.17"/>
</g>
<!-- guitar_combo -->
<g id="node16" class="node">
<title>guitar_combo</title>
<polygon fill="none" stroke="black" points="201.14,-36 107.62,-36 107.62,0 201.14,0 201.14,-36"/>
<text text-anchor="middle" x="154.38" y="-13.8" font-family="Times,serif" font-size="14.00">guitar_combo</text>
</g>
<!-- snd&#45;&gt;guitar_combo -->
<g id="edge29" class="edge">
<title>snd&#45;&gt;guitar_combo</title>
<path fill="none" stroke="green" stroke-dasharray="5,2" d="M232.77,-76.16C219.8,-66.7 201.8,-53.58 186.32,-42.29"/>
<polygon fill="green" stroke="green" points="188.17,-39.31 178.03,-36.24 184.05,-44.96 188.17,-39.31"/>
</g>
<!-- monitor -->
<g id="node17" class="node">
<title>monitor</title>
<polygon fill="none" stroke="black" points="279.71,-36 219.05,-36 219.05,0 279.71,0 279.71,-36"/>
<text text-anchor="middle" x="249.38" y="-13.8" font-family="Times,serif" font-size="14.00">monitor</text>
</g>
<!-- snd&#45;&gt;monitor -->
<g id="edge30" class="edge">
<title>snd&#45;&gt;monitor</title>
<path fill="none" stroke="green" stroke-dasharray="5,2" d="M250.14,-71.7C250.03,-63.98 249.89,-54.71 249.77,-46.11"/>
<polygon fill="green" stroke="green" points="253.27,-46.05 249.63,-36.1 246.27,-46.15 253.27,-46.05"/>
</g>
<!-- headphones -->
<g id="node18" class="node">
<title>headphones</title>
<polygon fill="none" stroke="black" points="379.47,-36 297.29,-36 297.29,0 379.47,0 379.47,-36"/>
<text text-anchor="middle" x="338.38" y="-13.8" font-family="Times,serif" font-size="14.00">headphones</text>
</g>
<!-- snd&#45;&gt;headphones -->
<g id="edge31" class="edge">
<title>snd&#45;&gt;headphones</title>
<path fill="none" stroke="green" stroke-dasharray="5,2" d="M267.35,-75.5C279.12,-66.14 295.11,-53.42 308.94,-42.42"/>
<polygon fill="green" stroke="green" points="311.14,-45.14 316.79,-36.18 306.78,-39.67 311.14,-45.14"/>
</g>
<!-- keys_combo -->
<g id="node19" class="node">
<title>keys_combo</title>
<polygon fill="none" stroke="black" points="86.65,-36 0.12,-36 0.12,0 86.65,0 86.65,-36"/>
<text text-anchor="middle" x="43.38" y="-13.8" font-family="Times,serif" font-size="14.00">keys_combo</text>
</g>
<!-- snd&#45;&gt;keys_combo -->
<g id="edge32" class="edge">
<title>snd&#45;&gt;keys_combo</title>
<path fill="none" stroke="green" stroke-dasharray="5,2" d="M226.64,-80.97C195.11,-70.31 138.53,-51.18 96.55,-36.98"/>
<polygon fill="green" stroke="green" points="97.62,-33.65 87.03,-33.76 95.38,-40.28 97.62,-33.65"/>
</g>
<!-- tablet -->
<g id="node6" class="node">
<title>tablet</title>
<ellipse fill="none" stroke="black" cx="36.38" cy="-234" rx="30" ry="18"/>
<text text-anchor="middle" x="36.38" y="-229.8" font-family="Times,serif" font-size="14.00">tablet</text>
</g>
<!-- tablet&#45;&gt;keys_combo -->
<g id="edge33" class="edge">
<title>tablet&#45;&gt;keys_combo</title>
<path fill="none" stroke="green" stroke-dasharray="5,2" d="M36.94,-215.85C38.15,-178.83 41.02,-91.18 42.49,-46.39"/>
<polygon fill="green" stroke="green" points="45.99,-46.34 42.82,-36.23 38.99,-46.11 45.99,-46.34"/>
</g>
<!-- midi&#45;&gt;keys -->
<g id="edge13" class="edge">
<title>midi&#45;&gt;keys</title>
<path fill="none" stroke="blue" stroke-dasharray="5,2" d="M289.64,-290.49C314.66,-278.5 350.04,-261.53 375.08,-249.53"/>
<polygon fill="blue" stroke="blue" points="288.12,-287.34 280.61,-294.82 291.14,-293.65 288.12,-287.34"/>
<polygon fill="blue" stroke="blue" points="376.62,-252.67 384.13,-245.19 373.6,-246.36 376.62,-252.67"/>
</g>
<!-- midi&#45;&gt;tablet -->
<g id="edge8" class="edge">
<title>midi&#45;&gt;tablet</title>
<path fill="none" stroke="blue" stroke-dasharray="5,2" d="M224.47,-296.4C187.14,-286.86 126.41,-270.38 75.38,-252 73.15,-251.2 70.87,-250.33 68.59,-249.42"/>
<polygon fill="blue" stroke="blue" points="223.8,-299.84 234.35,-298.9 225.52,-293.05 223.8,-299.84"/>
<polygon fill="blue" stroke="blue" points="69.86,-246.16 59.28,-245.57 67.18,-252.63 69.86,-246.16"/>
</g>
<!-- moog -->
<g id="node9" class="node">
<title>moog</title>
<ellipse fill="none" stroke="black" cx="114.38" cy="-234" rx="30" ry="18"/>
<text text-anchor="middle" x="114.38" y="-229.8" font-family="Times,serif" font-size="14.00">moog</text>
</g>
<!-- midi&#45;&gt;moog -->
<g id="edge14" class="edge">
<title>midi&#45;&gt;moog</title>
<path fill="none" stroke="blue" stroke-dasharray="5,2" d="M237.99,-294.67C213.89,-283.04 174.46,-264 146.62,-250.56"/>
<polygon fill="blue" stroke="blue" points="147.83,-247.26 137.3,-246.07 144.79,-253.56 147.83,-247.26"/>
</g>
<!-- tb03 -->
<g id="node10" class="node">
<title>tb03</title>
<ellipse fill="none" stroke="black" cx="189.38" cy="-234" rx="27" ry="18"/>
<text text-anchor="middle" x="189.38" y="-229.8" font-family="Times,serif" font-size="14.00">tb03</text>
</g>
<!-- midi&#45;&gt;tb03 -->
<g id="edge16" class="edge">
<title>midi&#45;&gt;tb03</title>
<path fill="none" stroke="blue" stroke-dasharray="5,2" d="M237.66,-283.28C229.16,-274.78 219.43,-265.05 210.94,-256.56"/>
<polygon fill="blue" stroke="blue" points="235.33,-285.9 244.88,-290.5 240.28,-280.95 235.33,-285.9"/>
<polygon fill="blue" stroke="blue" points="213.41,-254.08 203.87,-249.49 208.46,-259.03 213.41,-254.08"/>
</g>
<!-- tr08 -->
<g id="node11" class="node">
<title>tr08</title>
<ellipse fill="none" stroke="black" cx="261.38" cy="-234" rx="27" ry="18"/>
<text text-anchor="middle" x="261.38" y="-229.8" font-family="Times,serif" font-size="14.00">tr08</text>
</g>
<!-- midi&#45;&gt;tr08 -->
<g id="edge18" class="edge">
<title>midi&#45;&gt;tr08</title>
<path fill="none" stroke="blue" stroke-dasharray="5,2" d="M260.16,-277.67C260.31,-272.55 260.46,-267.21 260.61,-262.1"/>
<polygon fill="blue" stroke="blue" points="256.66,-277.6 259.88,-287.7 263.66,-277.8 256.66,-277.6"/>
<polygon fill="blue" stroke="blue" points="264.11,-262.2 260.89,-252.1 257.11,-262 264.11,-262.2"/>
</g>
<!-- sh01 -->
<g id="node12" class="node">
<title>sh01</title>
<ellipse fill="none" stroke="black" cx="333.38" cy="-234" rx="27" ry="18"/>
<text text-anchor="middle" x="333.38" y="-229.8" font-family="Times,serif" font-size="14.00">sh01</text>
</g>
<!-- midi&#45;&gt;sh01 -->
<g id="edge20" class="edge">
<title>midi&#45;&gt;sh01</title>
<path fill="none" stroke="blue" stroke-dasharray="5,2" d="M281.75,-283.84C291.03,-275.06 301.77,-264.9 311.05,-256.13"/>
<polygon fill="blue" stroke="blue" points="279.22,-281.42 274.36,-290.83 284.03,-286.51 279.22,-281.42"/>
<polygon fill="blue" stroke="blue" points="313.57,-258.56 318.43,-249.14 308.76,-253.47 313.57,-258.56"/>
</g>
<!-- mic -->
<g id="node8" class="node">
<title>mic</title>
<ellipse fill="none" stroke="black" cx="259.38" cy="-450" rx="27" ry="18"/>
<text text-anchor="middle" x="259.38" y="-445.8" font-family="Times,serif" font-size="14.00">mic</text>
</g>
<!-- mic&#45;&gt;usb -->
<g id="edge11" class="edge">
<title>mic&#45;&gt;usb</title>
<path fill="none" stroke="red" stroke-dasharray="5,2" d="M259.38,-431.7C259.38,-423.98 259.38,-414.71 259.38,-406.11"/>
<polygon fill="red" stroke="red" points="262.88,-406.1 259.38,-396.1 255.88,-406.1 262.88,-406.1"/>
</g>
<!-- mix -->
<g id="node13" class="node">
<title>mix</title>
<ellipse fill="none" stroke="black" cx="250.38" cy="-162" rx="27" ry="18"/>
<text text-anchor="middle" x="250.38" y="-157.8" font-family="Times,serif" font-size="14.00">mix</text>
</g>
<!-- moog&#45;&gt;mix -->
<g id="edge22" class="edge">
<title>moog&#45;&gt;mix</title>
<path fill="none" stroke="green" stroke-dasharray="5,2" d="M136.54,-221.6C159.36,-209.85 195.09,-191.46 220.42,-178.42"/>
<polygon fill="green" stroke="green" points="222.29,-181.4 229.58,-173.71 219.08,-175.17 222.29,-181.4"/>
</g>
<!-- tb03&#45;&gt;mix -->
<g id="edge23" class="edge">
<title>tb03&#45;&gt;mix</title>
<path fill="none" stroke="green" stroke-dasharray="5,2" d="M202.32,-218.15C210.57,-208.69 221.42,-196.24 230.72,-185.56"/>
<polygon fill="green" stroke="green" points="233.53,-187.66 237.46,-177.82 228.26,-183.06 233.53,-187.66"/>
</g>
<!-- tr08&#45;&gt;mix -->
<g id="edge24" class="edge">
<title>tr08&#45;&gt;mix</title>
<path fill="none" stroke="green" stroke-dasharray="5,2" d="M258.72,-216.05C257.51,-208.35 256.04,-199.03 254.68,-190.36"/>
<polygon fill="green" stroke="green" points="258.11,-189.61 253.1,-180.28 251.19,-190.7 258.11,-189.61"/>
</g>
<!-- sh01&#45;&gt;mix -->
<g id="edge25" class="edge">
<title>sh01&#45;&gt;mix</title>
<path fill="none" stroke="green" stroke-dasharray="5,2" d="M316.98,-219.17C304.74,-208.85 287.83,-194.58 274.11,-183.01"/>
<polygon fill="green" stroke="green" points="276.37,-180.33 266.46,-176.56 271.85,-185.69 276.37,-180.33"/>
</g>
<!-- mix&#45;&gt;snd -->
<g id="edge21" class="edge">
<title>mix&#45;&gt;snd</title>
<path fill="none" stroke="green" stroke-dasharray="5,2" d="M250.38,-143.7C250.38,-135.98 250.38,-126.71 250.38,-118.11"/>
<polygon fill="green" stroke="green" points="253.88,-118.1 250.38,-108.1 246.88,-118.1 253.88,-118.1"/>
</g>
</g>
</svg>
