<?xml version="1.0" encoding="UTF-8" standalone="no"?>
<!DOCTYPE svg PUBLIC "-//W3C//DTD SVG 1.1//EN"
 "http://www.w3.org/Graphics/SVG/1.1/DTD/svg11.dtd">
<!-- Generated by graphviz version 2.43.0 (0)
 -->
<!-- Title: G Pages: 1 -->
<svg width="476pt" height="476pt"
 viewBox="0.00 0.00 476.44 476.00" xmlns="http://www.w3.org/2000/svg" xmlns:xlink="http://www.w3.org/1999/xlink">
<g id="graph0" class="graph" transform="scale(1 1) rotate(0) translate(4 472)">
<title>G</title>
<polygon fill="white" stroke="transparent" points="-4,4 -4,-472 472.44,-472 472.44,4 -4,4"/>
<!-- pc -->
<g id="node1" class="node">
<title>pc</title>
<ellipse fill="none" stroke="black" cx="363.38" cy="-450" rx="27" ry="18"/>
<text text-anchor="middle" x="363.38" y="-445.8" font-family="Times,serif" font-size="14.00">pc</text>
</g>
<!-- usb -->
<g id="node2" class="node">
<title>usb</title>
<ellipse fill="none" stroke="black" cx="263.38" cy="-378" rx="27" ry="18"/>
<text text-anchor="middle" x="263.38" y="-373.8" font-family="Times,serif" font-size="14.00">usb</text>
</g>
<!-- pc&#45;&gt;usb -->
<g id="edge1" class="edge">
<title>pc&#45;&gt;usb</title>
<path fill="none" stroke="red" stroke-dasharray="5,2" d="M336.87,-430.44C322.38,-420.3 304.48,-407.77 289.97,-397.61"/>
<polygon fill="red" stroke="red" points="335.31,-433.62 345.5,-436.49 339.32,-427.88 335.31,-433.62"/>
<polygon fill="red" stroke="red" points="291.64,-394.51 281.44,-391.64 287.63,-400.24 291.64,-394.51"/>
</g>
<!-- snd -->
<g id="node3" class="node">
<title>snd</title>
<ellipse fill="none" stroke="black" cx="246.38" cy="-90" rx="27" ry="18"/>
<text text-anchor="middle" x="246.38" y="-85.8" font-family="Times,serif" font-size="14.00">snd</text>
</g>
<!-- pc&#45;&gt;snd -->
<g id="edge3" class="edge">
<title>pc&#45;&gt;snd</title>
<path fill="none" stroke="green" stroke-dasharray="5,2" d="M395.69,-436.46C413.87,-427.77 435.45,-414.43 448.38,-396 471.61,-362.89 467.38,-347.45 467.38,-307 467.38,-307 467.38,-307 467.38,-233 467.38,-146.17 345.13,-109.95 282.48,-97.09"/>
<polygon fill="green" stroke="green" points="394.23,-433.28 386.55,-440.58 397.11,-439.66 394.23,-433.28"/>
<polygon fill="green" stroke="green" points="283.09,-93.64 272.6,-95.15 281.74,-100.51 283.09,-93.64"/>
</g>
<!-- keys -->
<g id="node4" class="node">
<title>keys</title>
<ellipse fill="none" stroke="black" cx="412.38" cy="-234" rx="27" ry="18"/>
<text text-anchor="middle" x="412.38" y="-229.8" font-family="Times,serif" font-size="14.00">keys</text>
</g>
<!-- pc&#45;&gt;keys -->
<g id="edge5" class="edge">
<title>pc&#45;&gt;keys</title>
<path fill="none" stroke="red" stroke-dasharray="5,2" d="M348.78,-423.91C344.56,-415.35 340.52,-405.52 338.38,-396 334.89,-380.39 334.16,-375.43 338.38,-360 349,-321.22 375.09,-282.27 393.27,-258.39"/>
<polygon fill="red" stroke="red" points="345.79,-425.74 353.53,-432.97 351.99,-422.48 345.79,-425.74"/>
<polygon fill="red" stroke="red" points="396.18,-260.35 399.56,-250.31 390.66,-256.05 396.18,-260.35"/>
</g>
<!-- launchpad -->
<g id="node13" class="node">
<title>launchpad</title>
<ellipse fill="none" stroke="black" cx="393.38" cy="-378" rx="46.4" ry="18"/>
<text text-anchor="middle" x="393.38" y="-373.8" font-family="Times,serif" font-size="14.00">launchpad</text>
</g>
<!-- pc&#45;&gt;launchpad -->
<g id="edge26" class="edge">
<title>pc&#45;&gt;launchpad</title>
<path fill="none" stroke="red" stroke-dasharray="5,2" d="M374.5,-423.06C376.99,-417.26 379.62,-411.1 382.12,-405.29"/>
<polygon fill="red" stroke="red" points="371.21,-421.84 370.49,-432.41 377.65,-424.6 371.21,-421.84"/>
<polygon fill="red" stroke="red" points="385.39,-406.53 386.12,-395.96 378.96,-403.77 385.39,-406.53"/>
</g>
<!-- midi -->
<g id="node6" class="node">
<title>midi</title>
<ellipse fill="none" stroke="black" cx="262.38" cy="-306" rx="27" ry="18"/>
<text text-anchor="middle" x="262.38" y="-301.8" font-family="Times,serif" font-size="14.00">midi</text>
</g>
<!-- usb&#45;&gt;midi -->
<g id="edge10" class="edge">
<title>usb&#45;&gt;midi</title>
<path fill="none" stroke="red" stroke-dasharray="5,2" d="M262.99,-349.67C262.92,-344.55 262.84,-339.21 262.77,-334.1"/>
<polygon fill="red" stroke="red" points="259.49,-349.75 263.14,-359.7 266.49,-349.65 259.49,-349.75"/>
<polygon fill="red" stroke="red" points="266.27,-334.05 262.63,-324.1 259.27,-334.15 266.27,-334.05"/>
</g>
<!-- pa -->
<g id="node14" class="node">
<title>pa</title>
<polygon fill="none" stroke="black" points="448.38,-36 394.38,-36 394.38,0 448.38,0 448.38,-36"/>
<text text-anchor="middle" x="421.38" y="-13.8" font-family="Times,serif" font-size="14.00">pa</text>
</g>
<!-- snd&#45;&gt;pa -->
<g id="edge28" class="edge">
<title>snd&#45;&gt;pa</title>
<path fill="none" stroke="green" stroke-dasharray="5,2" d="M269.72,-80.72C295.72,-71.37 339.16,-55.35 384.88,-36.07"/>
<polygon fill="green" stroke="green" points="386.52,-39.17 394.36,-32.04 383.78,-32.73 386.52,-39.17"/>
</g>
<!-- guitar_combo -->
<g id="node15" class="node">
<title>guitar_combo</title>
<polygon fill="none" stroke="black" points="198.14,-36 104.62,-36 104.62,0 198.14,0 198.14,-36"/>
<text text-anchor="middle" x="151.38" y="-13.8" font-family="Times,serif" font-size="14.00">guitar_combo</text>
</g>
<!-- snd&#45;&gt;guitar_combo -->
<g id="edge29" class="edge">
<title>snd&#45;&gt;guitar_combo</title>
<path fill="none" stroke="green" stroke-dasharray="5,2" d="M228.96,-76.16C216.12,-66.7 198.31,-53.58 182.99,-42.29"/>
<polygon fill="green" stroke="green" points="184.91,-39.36 174.78,-36.24 180.76,-44.99 184.91,-39.36"/>
</g>
<!-- monitor -->
<g id="node16" class="node">
<title>monitor</title>
<polygon fill="none" stroke="black" points="276.71,-36 216.05,-36 216.05,0 276.71,0 276.71,-36"/>
<text text-anchor="middle" x="246.38" y="-13.8" font-family="Times,serif" font-size="14.00">monitor</text>
</g>
<!-- snd&#45;&gt;monitor -->
<g id="edge30" class="edge">
<title>snd&#45;&gt;monitor</title>
<path fill="none" stroke="green" stroke-dasharray="5,2" d="M246.38,-71.7C246.38,-63.98 246.38,-54.71 246.38,-46.11"/>
<polygon fill="green" stroke="green" points="249.88,-46.1 246.38,-36.1 242.88,-46.1 249.88,-46.1"/>
</g>
<!-- headphones -->
<g id="node17" class="node">
<title>headphones</title>
<polygon fill="none" stroke="black" points="376.47,-36 294.29,-36 294.29,0 376.47,0 376.47,-36"/>
<text text-anchor="middle" x="335.38" y="-13.8" font-family="Times,serif" font-size="14.00">headphones</text>
</g>
<!-- snd&#45;&gt;headphones -->
<g id="edge31" class="edge">
<title>snd&#45;&gt;headphones</title>
<path fill="none" stroke="green" stroke-dasharray="5,2" d="M263.12,-75.83C275.08,-66.43 291.48,-53.53 305.64,-42.39"/>
<polygon fill="green" stroke="green" points="307.97,-45.02 313.66,-36.08 303.64,-39.51 307.97,-45.02"/>
</g>
<!-- keys_combo -->
<g id="node18" class="node">
<title>keys_combo</title>
<polygon fill="none" stroke="black" points="86.65,-36 0.12,-36 0.12,0 86.65,0 86.65,-36"/>
<text text-anchor="middle" x="43.38" y="-13.8" font-family="Times,serif" font-size="14.00">keys_combo</text>
</g>
<!-- snd&#45;&gt;keys_combo -->
<g id="edge32" class="edge">
<title>snd&#45;&gt;keys_combo</title>
<path fill="none" stroke="green" stroke-dasharray="5,2" d="M222.7,-80.83C191.91,-70.22 137.24,-51.36 96.33,-37.26"/>
<polygon fill="green" stroke="green" points="97.38,-33.92 86.78,-33.97 95.09,-40.53 97.38,-33.92"/>
</g>
<!-- tablet -->
<g id="node5" class="node">
<title>tablet</title>
<ellipse fill="none" stroke="black" cx="43.38" cy="-234" rx="30" ry="18"/>
<text text-anchor="middle" x="43.38" y="-229.8" font-family="Times,serif" font-size="14.00">tablet</text>
</g>
<!-- tablet&#45;&gt;keys_combo -->
<g id="edge33" class="edge">
<title>tablet&#45;&gt;keys_combo</title>
<path fill="none" stroke="green" stroke-dasharray="5,2" d="M43.38,-215.85C43.38,-178.83 43.38,-91.18 43.38,-46.39"/>
<polygon fill="green" stroke="green" points="46.88,-46.23 43.38,-36.23 39.88,-46.23 46.88,-46.23"/>
</g>
<!-- midi&#45;&gt;keys -->
<g id="edge13" class="edge">
<title>midi&#45;&gt;keys</title>
<path fill="none" stroke="blue" stroke-dasharray="5,2" d="M293.49,-290.6C316.42,-279.97 348.37,-265.13 376.38,-252 378.17,-251.16 380,-250.3 381.85,-249.43"/>
<polygon fill="blue" stroke="blue" points="291.86,-287.5 284.26,-294.88 294.8,-293.85 291.86,-287.5"/>
<polygon fill="blue" stroke="blue" points="383.52,-252.52 391.07,-245.09 380.53,-246.18 383.52,-252.52"/>
</g>
<!-- midi&#45;&gt;tablet -->
<g id="edge8" class="edge">
<title>midi&#45;&gt;tablet</title>
<path fill="none" stroke="blue" stroke-dasharray="5,2" d="M227.94,-296.23C191.4,-286.61 132.2,-270.11 82.38,-252 80.16,-251.19 77.88,-250.32 75.59,-249.41"/>
<polygon fill="blue" stroke="blue" points="227.05,-299.62 237.61,-298.76 228.82,-292.84 227.05,-299.62"/>
<polygon fill="blue" stroke="blue" points="76.87,-246.15 66.29,-245.55 74.18,-252.61 76.87,-246.15"/>
</g>
<!-- moog -->
<g id="node8" class="node">
<title>moog</title>
<ellipse fill="none" stroke="black" cx="337.38" cy="-234" rx="30" ry="18"/>
<text text-anchor="middle" x="337.38" y="-229.8" font-family="Times,serif" font-size="14.00">moog</text>
</g>
<!-- midi&#45;&gt;moog -->
<g id="edge14" class="edge">
<title>midi&#45;&gt;moog</title>
<path fill="none" stroke="blue" stroke-dasharray="5,2" d="M277.56,-290.83C288.09,-281 302.32,-267.72 314.26,-256.58"/>
<polygon fill="blue" stroke="blue" points="316.79,-259.01 321.71,-249.63 312.01,-253.89 316.79,-259.01"/>
</g>
<!-- tb03 -->
<g id="node9" class="node">
<title>tb03</title>
<ellipse fill="none" stroke="black" cx="262.38" cy="-234" rx="27" ry="18"/>
<text text-anchor="middle" x="262.38" y="-229.8" font-family="Times,serif" font-size="14.00">tb03</text>
</g>
<!-- midi&#45;&gt;tb03 -->
<g id="edge16" class="edge">
<title>midi&#45;&gt;tb03</title>
<path fill="none" stroke="blue" stroke-dasharray="5,2" d="M262.38,-277.67C262.38,-272.69 262.38,-267.49 262.38,-262.51"/>
<polygon fill="blue" stroke="blue" points="258.88,-277.7 262.38,-287.7 265.88,-277.7 258.88,-277.7"/>
<polygon fill="blue" stroke="blue" points="265.88,-262.1 262.38,-252.1 258.88,-262.1 265.88,-262.1"/>
</g>
<!-- tr08 -->
<g id="node10" class="node">
<title>tr08</title>
<ellipse fill="none" stroke="black" cx="118.38" cy="-234" rx="27" ry="18"/>
<text text-anchor="middle" x="118.38" y="-229.8" font-family="Times,serif" font-size="14.00">tr08</text>
</g>
<!-- midi&#45;&gt;tr08 -->
<g id="edge18" class="edge">
<title>midi&#45;&gt;tr08</title>
<path fill="none" stroke="blue" stroke-dasharray="5,2" d="M231.91,-290.19C207.47,-278.31 173.34,-261.72 148.9,-249.83"/>
<polygon fill="blue" stroke="blue" points="230.61,-293.45 241.14,-294.67 233.67,-287.15 230.61,-293.45"/>
<polygon fill="blue" stroke="blue" points="150.24,-246.6 139.72,-245.37 147.18,-252.89 150.24,-246.6"/>
</g>
<!-- sh01 -->
<g id="node11" class="node">
<title>sh01</title>
<ellipse fill="none" stroke="black" cx="190.38" cy="-234" rx="27" ry="18"/>
<text text-anchor="middle" x="190.38" y="-229.8" font-family="Times,serif" font-size="14.00">sh01</text>
</g>
<!-- midi&#45;&gt;sh01 -->
<g id="edge20" class="edge">
<title>midi&#45;&gt;sh01</title>
<path fill="none" stroke="blue" stroke-dasharray="5,2" d="M240.34,-283.57C231.52,-274.99 221.37,-265.13 212.54,-256.54"/>
<polygon fill="blue" stroke="blue" points="238.2,-286.37 247.81,-290.83 243.08,-281.35 238.2,-286.37"/>
<polygon fill="blue" stroke="blue" points="214.79,-253.85 205.18,-249.38 209.91,-258.87 214.79,-253.85"/>
</g>
<!-- mic -->
<g id="node7" class="node">
<title>mic</title>
<ellipse fill="none" stroke="black" cx="263.38" cy="-450" rx="27" ry="18"/>
<text text-anchor="middle" x="263.38" y="-445.8" font-family="Times,serif" font-size="14.00">mic</text>
</g>
<!-- mic&#45;&gt;usb -->
<g id="edge11" class="edge">
<title>mic&#45;&gt;usb</title>
<path fill="none" stroke="red" stroke-dasharray="5,2" d="M263.38,-431.7C263.38,-423.98 263.38,-414.71 263.38,-406.11"/>
<polygon fill="red" stroke="red" points="266.88,-406.1 263.38,-396.1 259.88,-406.1 266.88,-406.1"/>
</g>
<!-- mix -->
<g id="node12" class="node">
<title>mix</title>
<ellipse fill="none" stroke="black" cx="242.38" cy="-162" rx="27" ry="18"/>
<text text-anchor="middle" x="242.38" y="-157.8" font-family="Times,serif" font-size="14.00">mix</text>
</g>
<!-- moog&#45;&gt;mix -->
<g id="edge22" class="edge">
<title>moog&#45;&gt;mix</title>
<path fill="none" stroke="green" stroke-dasharray="5,2" d="M319.07,-219.5C304.69,-208.91 284.49,-194.03 268.43,-182.2"/>
<polygon fill="green" stroke="green" points="270.13,-179.1 260,-175.98 265.98,-184.73 270.13,-179.1"/>
</g>
<!-- oscilloscope -->
<g id="node19" class="node">
<title>oscilloscope</title>
<ellipse fill="none" stroke="black" cx="341.38" cy="-162" rx="53.65" ry="18"/>
<text text-anchor="middle" x="341.38" y="-157.8" font-family="Times,serif" font-size="14.00">oscilloscope</text>
</g>
<!-- moog&#45;&gt;oscilloscope -->
<g id="edge34" class="edge">
<title>moog&#45;&gt;oscilloscope</title>
<path fill="none" stroke="green" stroke-dasharray="5,2" d="M338.37,-215.7C338.81,-207.98 339.34,-198.71 339.83,-190.11"/>
<polygon fill="green" stroke="green" points="343.33,-190.29 340.41,-180.1 336.34,-189.89 343.33,-190.29"/>
</g>
<!-- tb03&#45;&gt;mix -->
<g id="edge23" class="edge">
<title>tb03&#45;&gt;mix</title>
<path fill="none" stroke="green" stroke-dasharray="5,2" d="M257.54,-216.05C255.28,-208.14 252.54,-198.54 250.01,-189.69"/>
<polygon fill="green" stroke="green" points="253.29,-188.44 247.18,-179.79 246.56,-190.37 253.29,-188.44"/>
</g>
<!-- tr08&#45;&gt;mix -->
<g id="edge24" class="edge">
<title>tr08&#45;&gt;mix</title>
<path fill="none" stroke="green" stroke-dasharray="5,2" d="M138.31,-221.75C158.64,-210.27 190.42,-192.33 213.51,-179.3"/>
<polygon fill="green" stroke="green" points="215.52,-182.18 222.51,-174.22 212.08,-176.09 215.52,-182.18"/>
</g>
<!-- sh01&#45;&gt;mix -->
<g id="edge25" class="edge">
<title>sh01&#45;&gt;mix</title>
<path fill="none" stroke="green" stroke-dasharray="5,2" d="M201.92,-217.46C208.66,-208.4 217.28,-196.79 224.84,-186.61"/>
<polygon fill="green" stroke="green" points="227.72,-188.61 230.87,-178.49 222.1,-184.43 227.72,-188.61"/>
</g>
<!-- mix&#45;&gt;snd -->
<g id="edge21" class="edge">
<title>mix&#45;&gt;snd</title>
<path fill="none" stroke="green" stroke-dasharray="5,2" d="M243.37,-143.7C243.81,-135.98 244.34,-126.71 244.83,-118.11"/>
<polygon fill="green" stroke="green" points="248.33,-118.29 245.41,-108.1 241.34,-117.89 248.33,-118.29"/>
</g>
</g>
</svg>
