<?xml version="1.0" encoding="UTF-8" standalone="no"?>
<!DOCTYPE svg PUBLIC "-//W3C//DTD SVG 1.1//EN"
 "http://www.w3.org/Graphics/SVG/1.1/DTD/svg11.dtd">
<!-- Generated by graphviz version 2.43.0 (0)
 -->
<!-- Title: G Pages: 1 -->
<svg width="892pt" height="664pt"
 viewBox="0.00 0.00 891.52 663.55" xmlns="http://www.w3.org/2000/svg" xmlns:xlink="http://www.w3.org/1999/xlink">
<g id="graph0" class="graph" transform="scale(1 1) rotate(0) translate(4 659.55)">
<title>G</title>
<polygon fill="white" stroke="transparent" points="-4,4 -4,-659.55 887.52,-659.55 887.52,4 -4,4"/>
<!-- pc -->
<g id="node1" class="node">
<title>pc</title>
<ellipse fill="none" stroke="black" cx="766.91" cy="-620.2" rx="67.31" ry="35.21"/>
<text text-anchor="start" x="756.6" y="-630" font-family="Times,serif" font-size="14.00">PC </text>
<text text-anchor="start" x="746.69" y="-616" font-family="Times,serif" font-size="14.00"> Apple </text>
<text text-anchor="start" x="727.25" y="-602" font-family="Times,serif" font-size="14.00"> Macbook Pro</text>
</g>
<!-- usb -->
<g id="node2" class="node">
<title>usb</title>
<ellipse fill="none" stroke="black" cx="646.91" cy="-530.84" rx="27.12" ry="18"/>
<text text-anchor="middle" x="646.91" y="-526.64" font-family="Times,serif" font-size="14.00">USB</text>
</g>
<!-- pc&#45;&gt;usb -->
<g id="edge1" class="edge">
<title>pc&#45;&gt;usb</title>
<path fill="none" stroke="red" stroke-dasharray="5,2" d="M720.1,-585.12C704,-573.4 686.57,-560.71 672.76,-550.66"/>
<polygon fill="red" stroke="red" points="718.14,-588.02 728.29,-591.08 722.26,-582.36 718.14,-588.02"/>
<polygon fill="red" stroke="red" points="674.82,-547.83 664.68,-544.77 670.7,-553.49 674.82,-547.83"/>
</g>
<!-- snd -->
<g id="node3" class="node">
<title>snd</title>
<ellipse fill="none" stroke="black" cx="430.91" cy="-121.36" rx="60.62" ry="35.21"/>
<text text-anchor="start" x="395.91" y="-131.16" font-family="Times,serif" font-size="14.00">Sound Card </text>
<text text-anchor="start" x="405.05" y="-117.16" font-family="Times,serif" font-size="14.00"> Yamaha </text>
<text text-anchor="start" x="410.88" y="-103.16" font-family="Times,serif" font-size="14.00"> AGO6</text>
</g>
<!-- pc&#45;&gt;snd -->
<g id="edge3" class="edge">
<title>pc&#45;&gt;snd</title>
<path fill="none" stroke="green" stroke-dasharray="5,2" d="M822.69,-589.12C837.92,-578.34 852.95,-564.82 862.91,-548.84 888.32,-508.1 881.91,-490.5 881.91,-442.49 881.91,-442.49 881.91,-442.49 881.91,-333.78 881.91,-167.91 628.74,-131.91 501.77,-124.28"/>
<polygon fill="green" stroke="green" points="820.56,-586.33 814.23,-594.83 824.48,-592.13 820.56,-586.33"/>
<polygon fill="green" stroke="green" points="501.92,-120.78 491.74,-123.72 501.53,-127.77 501.92,-120.78"/>
</g>
<!-- keys -->
<g id="node4" class="node">
<title>keys</title>
<ellipse fill="none" stroke="black" cx="795.91" cy="-334.78" rx="58.11" ry="35.21"/>
<text text-anchor="start" x="763.84" y="-344.58" font-family="Times,serif" font-size="14.00">Keyboards </text>
<text text-anchor="start" x="766.36" y="-330.58" font-family="Times,serif" font-size="14.00"> Novation </text>
<text text-anchor="start" x="762.86" y="-316.58" font-family="Times,serif" font-size="14.00"> Impulse 61</text>
</g>
<!-- pc&#45;&gt;keys -->
<g id="edge5" class="edge">
<title>pc&#45;&gt;keys</title>
<path fill="none" stroke="red" stroke-dasharray="5,2" d="M756.77,-575.11C755.16,-566.45 753.76,-557.39 752.91,-548.84 747.04,-489.27 764.96,-421.71 779.44,-378.94"/>
<polygon fill="red" stroke="red" points="753.36,-575.91 758.72,-585.05 760.23,-574.56 753.36,-575.91"/>
<polygon fill="red" stroke="red" points="782.78,-380 782.75,-369.41 776.16,-377.71 782.78,-380"/>
</g>
<!-- launchpad -->
<g id="node13" class="node">
<title>launchpad</title>
<ellipse fill="none" stroke="black" cx="807.91" cy="-530.84" rx="46.4" ry="18"/>
<text text-anchor="middle" x="807.91" y="-526.64" font-family="Times,serif" font-size="14.00">launchpad</text>
</g>
<!-- pc&#45;&gt;launchpad -->
<g id="edge26" class="edge">
<title>pc&#45;&gt;launchpad</title>
<path fill="none" stroke="red" stroke-dasharray="5,2" d="M786.98,-576.44C789.9,-570.22 792.84,-563.97 795.54,-558.2"/>
<polygon fill="red" stroke="red" points="783.73,-575.13 782.65,-585.67 790.07,-578.11 783.73,-575.13"/>
<polygon fill="red" stroke="red" points="798.76,-559.58 799.85,-549.04 792.43,-556.6 798.76,-559.58"/>
</g>
<!-- midi -->
<g id="node5" class="node">
<title>midi</title>
<ellipse fill="none" stroke="black" cx="500.91" cy="-441.49" rx="70.27" ry="35.21"/>
<text text-anchor="start" x="462.03" y="-451.29" font-family="Times,serif" font-size="14.00">MIDI Switch </text>
<text text-anchor="start" x="472.14" y="-437.29" font-family="Times,serif" font-size="14.00"> Midi­tech </text>
<text text-anchor="start" x="459.32" y="-423.29" font-family="Times,serif" font-size="14.00"> MIDI­face 8x8</text>
</g>
<!-- usb&#45;&gt;midi -->
<g id="edge8" class="edge">
<title>usb&#45;&gt;midi</title>
<path fill="none" stroke="red" stroke-dasharray="5,2" d="M618.56,-512.88C600.31,-501.96 576.02,-487.43 554.25,-474.4"/>
<polygon fill="red" stroke="red" points="616.85,-515.93 627.22,-518.06 620.44,-509.92 616.85,-515.93"/>
<polygon fill="red" stroke="red" points="555.8,-471.25 545.42,-469.12 552.2,-477.25 555.8,-471.25"/>
</g>
<!-- guitar_combo -->
<g id="node14" class="node">
<title>guitar_combo</title>
<polygon fill="none" stroke="black" points="642.41,-43 545.42,-43 545.42,-7 642.41,-7 642.41,-43"/>
<text text-anchor="middle" x="593.91" y="-20.8" font-family="Times,serif" font-size="14.00">Guitar Combo</text>
</g>
<!-- snd&#45;&gt;guitar_combo -->
<g id="edge29" class="edge">
<title>snd&#45;&gt;guitar_combo</title>
<path fill="none" stroke="green" stroke-dasharray="5,2" d="M473.32,-95.81C498.77,-81.08 530.9,-62.48 555.59,-48.19"/>
<polygon fill="green" stroke="green" points="557.42,-51.17 564.32,-43.13 553.91,-45.11 557.42,-51.17"/>
</g>
<!-- keys_combo -->
<g id="node15" class="node">
<title>keys_combo</title>
<polygon fill="none" stroke="black" points="248.47,-50 63.36,-50 63.36,0 248.47,0 248.47,-50"/>
<text text-anchor="start" x="71.14" y="-34.8" font-family="Times,serif" font-size="14.00">Keyboard Combo / Audiohub </text>
<text text-anchor="start" x="128.95" y="-20.8" font-family="Times,serif" font-size="14.00"> LANEY </text>
<text text-anchor="start" x="133.94" y="-6.8" font-family="Times,serif" font-size="14.00"> AH150</text>
</g>
<!-- snd&#45;&gt;keys_combo -->
<g id="edge32" class="edge">
<title>snd&#45;&gt;keys_combo</title>
<path fill="none" stroke="green" stroke-dasharray="5,2" d="M379.19,-102.61C338.81,-88.75 281.99,-69.26 235.78,-53.4"/>
<polygon fill="green" stroke="green" points="236.69,-50.01 226.09,-50.08 234.42,-56.63 236.69,-50.01"/>
</g>
<!-- headphones -->
<g id="node16" class="node">
<title>headphones</title>
<polygon fill="none" stroke="black" points="370.62,-43 285.21,-43 285.21,-7 370.62,-7 370.62,-43"/>
<text text-anchor="middle" x="327.91" y="-20.8" font-family="Times,serif" font-size="14.00">Headphones</text>
</g>
<!-- snd&#45;&gt;headphones -->
<g id="edge31" class="edge">
<title>snd&#45;&gt;headphones</title>
<path fill="none" stroke="green" stroke-dasharray="5,2" d="M398.89,-91.02C384.57,-77.9 367.9,-62.63 354.32,-50.19"/>
<polygon fill="green" stroke="green" points="356.45,-47.4 346.72,-43.22 351.72,-52.56 356.45,-47.4"/>
</g>
<!-- monitors -->
<g id="node17" class="node">
<title>monitors</title>
<polygon fill="none" stroke="black" points="455.75,-43 388.08,-43 388.08,-7 455.75,-7 455.75,-43"/>
<text text-anchor="middle" x="421.91" y="-20.8" font-family="Times,serif" font-size="14.00">Monitors</text>
</g>
<!-- snd&#45;&gt;monitors -->
<g id="edge30" class="edge">
<title>snd&#45;&gt;monitors</title>
<path fill="none" stroke="green" stroke-dasharray="5,2" d="M427.64,-86.02C426.61,-75.23 425.49,-63.47 424.51,-53.23"/>
<polygon fill="green" stroke="green" points="427.99,-52.85 423.56,-43.23 421.02,-53.52 427.99,-52.85"/>
</g>
<!-- pa -->
<g id="node18" class="node">
<title>pa</title>
<polygon fill="none" stroke="black" points="527.91,-43 473.91,-43 473.91,-7 527.91,-7 527.91,-43"/>
<text text-anchor="start" x="492.61" y="-20.8" font-family="Times,serif" font-size="14.00">PA</text>
</g>
<!-- snd&#45;&gt;pa -->
<g id="edge28" class="edge">
<title>snd&#45;&gt;pa</title>
<path fill="none" stroke="green" stroke-dasharray="5,2" d="M454.42,-88.67C463.41,-76.56 473.53,-62.91 482.04,-51.45"/>
<polygon fill="green" stroke="green" points="485.03,-53.29 488.18,-43.17 479.41,-49.12 485.03,-53.29"/>
</g>
<!-- midi&#45;&gt;keys -->
<g id="edge11" class="edge">
<title>midi&#45;&gt;keys</title>
<path fill="none" stroke="blue" stroke-dasharray="5,2" d="M572.31,-421.68C617.56,-408.95 676.95,-390.73 727.91,-370.13 733.05,-368.06 738.32,-365.74 743.56,-363.32"/>
<polygon fill="blue" stroke="blue" points="571.27,-418.33 562.58,-424.39 573.15,-425.07 571.27,-418.33"/>
<polygon fill="blue" stroke="blue" points="745.36,-366.33 752.88,-358.87 742.35,-360.01 745.36,-366.33"/>
</g>
<!-- tablet -->
<g id="node7" class="node">
<title>tablet</title>
<ellipse fill="none" stroke="black" cx="39.91" cy="-334.78" rx="39.83" ry="35.21"/>
<text text-anchor="start" x="20.77" y="-344.58" font-family="Times,serif" font-size="14.00">Tablet </text>
<text text-anchor="start" x="19.69" y="-330.58" font-family="Times,serif" font-size="14.00"> Apple </text>
<text text-anchor="start" x="25.72" y="-316.58" font-family="Times,serif" font-size="14.00"> iPad</text>
</g>
<!-- midi&#45;&gt;tablet -->
<g id="edge13" class="edge">
<title>midi&#45;&gt;tablet</title>
<path fill="none" stroke="blue" stroke-dasharray="5,2" d="M420.79,-437.21C335.62,-431.38 198.38,-415.17 88.91,-370.13 85.18,-368.6 81.46,-366.74 77.82,-364.69"/>
<polygon fill="blue" stroke="blue" points="420.71,-440.71 430.92,-437.87 421.17,-433.73 420.71,-440.71"/>
<polygon fill="blue" stroke="blue" points="79.36,-361.53 69.01,-359.27 75.7,-367.49 79.36,-361.53"/>
</g>
<!-- moog -->
<g id="node8" class="node">
<title>moog</title>
<ellipse fill="none" stroke="black" cx="645.91" cy="-334.78" rx="73.42" ry="35.21"/>
<text text-anchor="start" x="601.97" y="-344.58" font-family="Times,serif" font-size="14.00">Modular Synth </text>
<text text-anchor="start" x="625.69" y="-330.58" font-family="Times,serif" font-size="14.00"> Moog </text>
<text text-anchor="start" x="614.81" y="-316.58" font-family="Times,serif" font-size="14.00"> Mother 32</text>
</g>
<!-- midi&#45;&gt;moog -->
<g id="edge14" class="edge">
<title>midi&#45;&gt;moog</title>
<path fill="none" stroke="blue" stroke-dasharray="5,2" d="M540.15,-412.15C557.91,-399.33 579.06,-384.06 597.76,-370.55"/>
<polygon fill="blue" stroke="blue" points="599.83,-373.37 605.89,-364.68 595.73,-367.7 599.83,-373.37"/>
</g>
<!-- tb03 -->
<g id="node9" class="node">
<title>tb03</title>
<ellipse fill="none" stroke="black" cx="500.91" cy="-334.78" rx="53.21" ry="35.21"/>
<text text-anchor="start" x="471.36" y="-344.58" font-family="Times,serif" font-size="14.00">Bass Line </text>
<text text-anchor="start" x="477.19" y="-330.58" font-family="Times,serif" font-size="14.00"> Roland </text>
<text text-anchor="start" x="481.01" y="-316.58" font-family="Times,serif" font-size="14.00"> TB&#45;03</text>
</g>
<!-- midi&#45;&gt;tb03 -->
<g id="edge16" class="edge">
<title>midi&#45;&gt;tb03</title>
<path fill="none" stroke="blue" stroke-dasharray="5,2" d="M500.91,-395.73C500.91,-390.68 500.91,-385.53 500.91,-380.48"/>
<polygon fill="blue" stroke="blue" points="497.42,-395.91 500.91,-405.91 504.42,-395.91 497.42,-395.91"/>
<polygon fill="blue" stroke="blue" points="504.42,-380.32 500.91,-370.32 497.42,-380.32 504.42,-380.32"/>
</g>
<!-- tr08 -->
<g id="node10" class="node">
<title>tr08</title>
<ellipse fill="none" stroke="black" cx="186.91" cy="-334.78" rx="88.72" ry="35.21"/>
<text text-anchor="start" x="132.08" y="-344.58" font-family="Times,serif" font-size="14.00">Rhythm Composer </text>
<text text-anchor="start" x="163.19" y="-330.58" font-family="Times,serif" font-size="14.00"> Roland </text>
<text text-anchor="start" x="167.01" y="-316.58" font-family="Times,serif" font-size="14.00"> TR&#45;08</text>
</g>
<!-- midi&#45;&gt;tr08 -->
<g id="edge18" class="edge">
<title>midi&#45;&gt;tr08</title>
<path fill="none" stroke="blue" stroke-dasharray="5,2" d="M432.43,-418.61C389.9,-404.92 334.13,-386.77 284.91,-370.13 277.39,-367.59 269.55,-364.9 261.72,-362.19"/>
<polygon fill="blue" stroke="blue" points="431.53,-422 442.12,-421.73 433.68,-415.34 431.53,-422"/>
<polygon fill="blue" stroke="blue" points="262.81,-358.87 252.21,-358.89 260.51,-365.48 262.81,-358.87"/>
</g>
<!-- sh01 -->
<g id="node11" class="node">
<title>sh01</title>
<ellipse fill="none" stroke="black" cx="361.91" cy="-334.78" rx="67.93" ry="35.21"/>
<text text-anchor="start" x="321.86" y="-344.58" font-family="Times,serif" font-size="14.00">Classic Synth </text>
<text text-anchor="start" x="338.19" y="-330.58" font-family="Times,serif" font-size="14.00"> Roland </text>
<text text-anchor="start" x="336.83" y="-316.58" font-family="Times,serif" font-size="14.00"> SH&#45;01A</text>
</g>
<!-- midi&#45;&gt;sh01 -->
<g id="edge20" class="edge">
<title>midi&#45;&gt;sh01</title>
<path fill="none" stroke="blue" stroke-dasharray="5,2" d="M454.55,-405.56C439.5,-394.23 422.82,-381.66 407.81,-370.35"/>
<polygon fill="blue" stroke="blue" points="452.47,-408.38 462.56,-411.6 456.68,-402.79 452.47,-408.38"/>
<polygon fill="blue" stroke="blue" points="409.75,-367.43 399.66,-364.21 405.54,-373.02 409.75,-367.43"/>
</g>
<!-- mic -->
<g id="node6" class="node">
<title>mic</title>
<ellipse fill="none" stroke="black" cx="646.91" cy="-620.2" rx="27" ry="18"/>
<text text-anchor="middle" x="646.91" y="-616" font-family="Times,serif" font-size="14.00">mic</text>
</g>
<!-- mic&#45;&gt;usb -->
<g id="edge9" class="edge">
<title>mic&#45;&gt;usb</title>
<path fill="none" stroke="red" stroke-dasharray="5,2" d="M646.91,-601.94C646.91,-589.74 646.91,-573.12 646.91,-559.14"/>
<polygon fill="red" stroke="red" points="650.42,-559.07 646.91,-549.07 643.42,-559.07 650.42,-559.07"/>
</g>
<!-- tablet&#45;&gt;keys_combo -->
<g id="edge33" class="edge">
<title>tablet&#45;&gt;keys_combo</title>
<path fill="none" stroke="green" stroke-dasharray="5,2" d="M52.22,-301.13C74.38,-242.34 120.77,-119.25 143.21,-59.7"/>
<polygon fill="green" stroke="green" points="146.61,-60.62 146.86,-50.03 140.06,-58.15 146.61,-60.62"/>
</g>
<!-- mix -->
<g id="node12" class="node">
<title>mix</title>
<ellipse fill="none" stroke="black" cx="430.91" cy="-228.07" rx="27" ry="18"/>
<text text-anchor="middle" x="430.91" y="-223.87" font-family="Times,serif" font-size="14.00">mix</text>
</g>
<!-- moog&#45;&gt;mix -->
<g id="edge22" class="edge">
<title>moog&#45;&gt;mix</title>
<path fill="none" stroke="green" stroke-dasharray="5,2" d="M595.24,-309.09C553.59,-288.81 495.98,-260.75 461.2,-243.81"/>
<polygon fill="green" stroke="green" points="462.55,-240.58 452.02,-239.35 459.48,-246.87 462.55,-240.58"/>
</g>
<!-- oscilloscope -->
<g id="node19" class="node">
<title>oscilloscope</title>
<ellipse fill="none" stroke="black" cx="645.91" cy="-228.07" rx="64.85" ry="35.21"/>
<text text-anchor="start" x="608.01" y="-237.87" font-family="Times,serif" font-size="14.00">Oscilloscope </text>
<text text-anchor="start" x="625.3" y="-223.87" font-family="Times,serif" font-size="14.00"> Owon </text>
<text text-anchor="start" x="610.72" y="-209.87" font-family="Times,serif" font-size="14.00"> MSO8202T</text>
</g>
<!-- moog&#45;&gt;oscilloscope -->
<g id="edge34" class="edge">
<title>moog&#45;&gt;oscilloscope</title>
<path fill="none" stroke="green" stroke-dasharray="5,2" d="M645.91,-299.2C645.91,-291.07 645.91,-282.29 645.91,-273.78"/>
<polygon fill="green" stroke="green" points="649.42,-273.61 645.91,-263.61 642.42,-273.61 649.42,-273.61"/>
</g>
<!-- tb03&#45;&gt;mix -->
<g id="edge23" class="edge">
<title>tb03&#45;&gt;mix</title>
<path fill="none" stroke="green" stroke-dasharray="5,2" d="M479.72,-302.08C469.26,-286.42 456.83,-267.84 447.14,-253.34"/>
<polygon fill="green" stroke="green" points="449.97,-251.27 441.5,-244.9 444.15,-255.16 449.97,-251.27"/>
</g>
<!-- tr08&#45;&gt;mix -->
<g id="edge24" class="edge">
<title>tr08&#45;&gt;mix</title>
<path fill="none" stroke="green" stroke-dasharray="5,2" d="M246.29,-308.3C294.46,-287.62 360.5,-259.28 399.15,-242.7"/>
<polygon fill="green" stroke="green" points="401.01,-245.71 408.82,-238.55 398.25,-239.27 401.01,-245.71"/>
</g>
<!-- sh01&#45;&gt;mix -->
<g id="edge25" class="edge">
<title>sh01&#45;&gt;mix</title>
<path fill="none" stroke="green" stroke-dasharray="5,2" d="M383.37,-301.22C393.49,-285.85 405.38,-267.82 414.73,-253.63"/>
<polygon fill="green" stroke="green" points="417.89,-255.2 420.47,-244.92 412.04,-251.34 417.89,-255.2"/>
</g>
<!-- mix&#45;&gt;snd -->
<g id="edge21" class="edge">
<title>mix&#45;&gt;snd</title>
<path fill="none" stroke="green" stroke-dasharray="5,2" d="M430.91,-209.78C430.91,-198.16 430.91,-182.3 430.91,-167.26"/>
<polygon fill="green" stroke="green" points="434.42,-167.05 430.91,-157.05 427.42,-167.05 434.42,-167.05"/>
</g>
</g>
</svg>
