<?xml version="1.0" encoding="UTF-8" standalone="no"?>
<!DOCTYPE svg PUBLIC "-//W3C//DTD SVG 1.1//EN"
 "http://www.w3.org/Graphics/SVG/1.1/DTD/svg11.dtd">
<!-- Generated by graphviz version 2.43.0 (0)
 -->
<!-- Title: G Pages: 1 -->
<svg width="900pt" height="698pt"
 viewBox="0.00 0.00 899.60 698.26" xmlns="http://www.w3.org/2000/svg" xmlns:xlink="http://www.w3.org/1999/xlink">
<g id="graph0" class="graph" transform="scale(1 1) rotate(0) translate(4 694.26)">
<title>G</title>
<polygon fill="white" stroke="transparent" points="-4,4 -4,-694.26 895.6,-694.26 895.6,4 -4,4"/>
<!-- pc -->
<g id="node1" class="node">
<title>pc</title>
<ellipse fill="none" stroke="black" cx="712.91" cy="-654.91" rx="67.31" ry="35.21"/>
<text text-anchor="start" x="702.6" y="-664.71" font-family="Times,serif" font-size="14.00">PC </text>
<text text-anchor="start" x="692.69" y="-650.71" font-family="Times,serif" font-size="14.00"> Apple </text>
<text text-anchor="start" x="673.25" y="-636.71" font-family="Times,serif" font-size="14.00"> Macbook Pro</text>
</g>
<!-- usb -->
<g id="node2" class="node">
<title>usb</title>
<ellipse fill="none" stroke="black" cx="494.91" cy="-548.2" rx="102.31" ry="35.21"/>
<text text-anchor="start" x="447.85" y="-558" font-family="Times,serif" font-size="14.00">USB 3.0 Switch </text>
<text text-anchor="start" x="473.53" y="-544" font-family="Times,serif" font-size="14.00"> I&#45;TEC </text>
<text text-anchor="start" x="430.68" y="-530" font-family="Times,serif" font-size="14.00"> Charging HUB 16port</text>
</g>
<!-- pc&#45;&gt;usb -->
<g id="edge1" class="edge">
<title>pc&#45;&gt;usb</title>
<path fill="none" stroke="red" stroke-dasharray="5,2" d="M654.92,-626.05C626.46,-612.38 592.01,-595.84 562.38,-581.6"/>
<polygon fill="red" stroke="red" points="653.46,-629.23 663.99,-630.41 656.49,-622.92 653.46,-629.23"/>
<polygon fill="red" stroke="red" points="563.88,-578.44 553.35,-577.27 560.85,-584.75 563.88,-578.44"/>
</g>
<!-- snd -->
<g id="node3" class="node">
<title>snd</title>
<ellipse fill="none" stroke="black" cx="429.91" cy="-121.36" rx="60.62" ry="35.21"/>
<text text-anchor="start" x="394.91" y="-131.16" font-family="Times,serif" font-size="14.00">Sound Card </text>
<text text-anchor="start" x="404.05" y="-117.16" font-family="Times,serif" font-size="14.00"> Yamaha </text>
<text text-anchor="start" x="409.88" y="-103.16" font-family="Times,serif" font-size="14.00"> AGO6</text>
</g>
<!-- pc&#45;&gt;snd -->
<g id="edge3" class="edge">
<title>pc&#45;&gt;snd</title>
<path fill="none" stroke="green" stroke-dasharray="5,2" d="M784.77,-637.85C815.06,-627.41 847.87,-610.52 867.91,-583.55 905.66,-532.78 886.91,-505.75 886.91,-442.49 886.91,-442.49 886.91,-442.49 886.91,-333.78 886.91,-165.89 629.72,-130.91 501.22,-123.91"/>
<polygon fill="green" stroke="green" points="783.47,-634.6 775.04,-641.02 785.64,-641.25 783.47,-634.6"/>
<polygon fill="green" stroke="green" points="501.24,-120.41 491.07,-123.4 500.89,-127.4 501.24,-120.41"/>
</g>
<!-- keys -->
<g id="node4" class="node">
<title>keys</title>
<ellipse fill="none" stroke="black" cx="795.91" cy="-334.78" rx="58.11" ry="35.21"/>
<text text-anchor="start" x="763.84" y="-344.58" font-family="Times,serif" font-size="14.00">Keyboards </text>
<text text-anchor="start" x="766.36" y="-330.58" font-family="Times,serif" font-size="14.00"> Novation </text>
<text text-anchor="start" x="762.86" y="-316.58" font-family="Times,serif" font-size="14.00"> Impulse 61</text>
</g>
<!-- pc&#45;&gt;keys -->
<g id="edge5" class="edge">
<title>pc&#45;&gt;keys</title>
<path fill="none" stroke="red" stroke-dasharray="5,2" d="M667.71,-618.31C658.05,-608.22 649.17,-596.43 643.91,-583.55 632.03,-554.46 633,-542.31 643.91,-512.84 665.59,-454.32 716.22,-402.11 753.1,-369.81"/>
<polygon fill="red" stroke="red" points="665.27,-620.82 674.85,-625.36 670.19,-615.84 665.27,-620.82"/>
<polygon fill="red" stroke="red" points="755.46,-372.41 760.75,-363.23 750.89,-367.1 755.46,-372.41"/>
</g>
<!-- launchpad -->
<g id="node13" class="node">
<title>launchpad</title>
<ellipse fill="none" stroke="black" cx="755.91" cy="-548.2" rx="102.71" ry="35.21"/>
<text text-anchor="start" x="691.19" y="-558" font-family="Times,serif" font-size="14.00">Launchpad / Drumpad </text>
<text text-anchor="start" x="726.36" y="-544" font-family="Times,serif" font-size="14.00"> Novation </text>
<text text-anchor="start" x="723.07" y="-530" font-family="Times,serif" font-size="14.00"> Launchpad</text>
</g>
<!-- pc&#45;&gt;launchpad -->
<g id="edge26" class="edge">
<title>pc&#45;&gt;launchpad</title>
<path fill="none" stroke="red" stroke-dasharray="5,2" d="M730.58,-610.9C732.97,-605.07 735.43,-599.07 737.84,-593.22"/>
<polygon fill="red" stroke="red" points="727.32,-609.62 726.76,-620.2 733.79,-612.28 727.32,-609.62"/>
<polygon fill="red" stroke="red" points="741.24,-594.14 741.8,-583.56 734.77,-591.48 741.24,-594.14"/>
</g>
<!-- midi -->
<g id="node5" class="node">
<title>midi</title>
<ellipse fill="none" stroke="black" cx="494.91" cy="-441.49" rx="70.27" ry="35.21"/>
<text text-anchor="start" x="456.03" y="-451.29" font-family="Times,serif" font-size="14.00">MIDI Switch </text>
<text text-anchor="start" x="466.14" y="-437.29" font-family="Times,serif" font-size="14.00"> Midi­tech </text>
<text text-anchor="start" x="453.32" y="-423.29" font-family="Times,serif" font-size="14.00"> MIDI­face 8x8</text>
</g>
<!-- usb&#45;&gt;midi -->
<g id="edge8" class="edge">
<title>usb&#45;&gt;midi</title>
<path fill="none" stroke="red" stroke-dasharray="5,2" d="M494.91,-502.44C494.91,-497.39 494.91,-492.25 494.91,-487.2"/>
<polygon fill="red" stroke="red" points="491.42,-502.62 494.91,-512.62 498.42,-502.62 491.42,-502.62"/>
<polygon fill="red" stroke="red" points="498.42,-487.03 494.91,-477.03 491.42,-487.03 498.42,-487.03"/>
</g>
<!-- guitar_combo -->
<g id="node14" class="node">
<title>guitar_combo</title>
<polygon fill="none" stroke="black" points="785.85,-50 627.98,-50 627.98,0 785.85,0 785.85,-50"/>
<text text-anchor="start" x="635.95" y="-34.8" font-family="Times,serif" font-size="14.00">Guitar Modeling Combo </text>
<text text-anchor="start" x="683.98" y="-20.8" font-family="Times,serif" font-size="14.00"> Fender </text>
<text text-anchor="start" x="670.48" y="-6.8" font-family="Times,serif" font-size="14.00"> Mustang V2</text>
</g>
<!-- snd&#45;&gt;guitar_combo -->
<g id="edge29" class="edge">
<title>snd&#45;&gt;guitar_combo</title>
<path fill="none" stroke="green" stroke-dasharray="5,2" d="M481.69,-102.72C522.49,-88.82 580.09,-69.2 626.83,-53.28"/>
<polygon fill="green" stroke="green" points="627.98,-56.58 636.32,-50.05 625.73,-49.96 627.98,-56.58"/>
</g>
<!-- keys_combo -->
<g id="node15" class="node">
<title>keys_combo</title>
<polygon fill="none" stroke="black" points="228.47,-50 43.36,-50 43.36,0 228.47,0 228.47,-50"/>
<text text-anchor="start" x="51.14" y="-34.8" font-family="Times,serif" font-size="14.00">Keyboard Combo / Audiohub </text>
<text text-anchor="start" x="108.95" y="-20.8" font-family="Times,serif" font-size="14.00"> LANEY </text>
<text text-anchor="start" x="113.94" y="-6.8" font-family="Times,serif" font-size="14.00"> AH150</text>
</g>
<!-- snd&#45;&gt;keys_combo -->
<g id="edge32" class="edge">
<title>snd&#45;&gt;keys_combo</title>
<path fill="none" stroke="green" stroke-dasharray="5,2" d="M377.35,-103.49C333.83,-89.52 271.15,-69.4 220.56,-53.17"/>
<polygon fill="green" stroke="green" points="221.53,-49.8 210.94,-50.08 219.4,-56.47 221.53,-49.8"/>
</g>
<!-- headphones -->
<g id="node16" class="node">
<title>headphones</title>
<polygon fill="none" stroke="black" points="346.12,-50 257.71,-50 257.71,0 346.12,0 346.12,-50"/>
<text text-anchor="start" x="265.56" y="-34.8" font-family="Times,serif" font-size="14.00">Headphones </text>
<text text-anchor="start" x="273.53" y="-20.8" font-family="Times,serif" font-size="14.00"> Marshall </text>
<text text-anchor="start" x="283.06" y="-6.8" font-family="Times,serif" font-size="14.00"> Major</text>
</g>
<!-- snd&#45;&gt;headphones -->
<g id="edge31" class="edge">
<title>snd&#45;&gt;headphones</title>
<path fill="none" stroke="green" stroke-dasharray="5,2" d="M392.89,-93.06C377.17,-81.48 358.8,-67.93 342.69,-56.06"/>
<polygon fill="green" stroke="green" points="344.63,-53.14 334.5,-50.02 340.47,-58.77 344.63,-53.14"/>
</g>
<!-- monitors -->
<g id="node17" class="node">
<title>monitors</title>
<polygon fill="none" stroke="black" points="483.84,-50 363.99,-50 363.99,0 483.84,0 483.84,-50"/>
<text text-anchor="start" x="372.2" y="-34.8" font-family="Times,serif" font-size="14.00">Monitor Speakers </text>
<text text-anchor="start" x="394.37" y="-20.8" font-family="Times,serif" font-size="14.00"> Kurzweil </text>
<text text-anchor="start" x="398.83" y="-6.8" font-family="Times,serif" font-size="14.00"> KS&#45;40A</text>
</g>
<!-- snd&#45;&gt;monitors -->
<g id="edge30" class="edge">
<title>snd&#45;&gt;monitors</title>
<path fill="none" stroke="green" stroke-dasharray="5,2" d="M427.71,-85.76C427.19,-77.47 426.63,-68.63 426.1,-60.36"/>
<polygon fill="green" stroke="green" points="429.59,-60.03 425.46,-50.27 422.6,-60.47 429.59,-60.03"/>
</g>
<!-- pa -->
<g id="node18" class="node">
<title>pa</title>
<polygon fill="none" stroke="black" points="610.09,-50 501.74,-50 501.74,0 610.09,0 610.09,-50"/>
<text text-anchor="start" x="525.83" y="-34.8" font-family="Times,serif" font-size="14.00">Active PA </text>
<text text-anchor="start" x="509.58" y="-20.8" font-family="Times,serif" font-size="14.00"> Mackie Thump </text>
<text text-anchor="start" x="542.11" y="-6.8" font-family="Times,serif" font-size="14.00"> 15A</text>
</g>
<!-- snd&#45;&gt;pa -->
<g id="edge28" class="edge">
<title>snd&#45;&gt;pa</title>
<path fill="none" stroke="green" stroke-dasharray="5,2" d="M466.7,-92.81C481.9,-81.43 499.58,-68.19 515.17,-56.51"/>
<polygon fill="green" stroke="green" points="517.68,-59.01 523.58,-50.21 513.48,-53.4 517.68,-59.01"/>
</g>
<!-- midi&#45;&gt;keys -->
<g id="edge11" class="edge">
<title>midi&#45;&gt;keys</title>
<path fill="none" stroke="blue" stroke-dasharray="5,2" d="M564.41,-419.82C630.18,-400.22 720.03,-373.29 727.91,-370.13 733.06,-368.07 738.34,-365.77 743.57,-363.36"/>
<polygon fill="blue" stroke="blue" points="563.07,-416.57 554.48,-422.78 565.07,-423.28 563.07,-416.57"/>
<polygon fill="blue" stroke="blue" points="745.37,-366.38 752.9,-358.92 742.37,-360.05 745.37,-366.38"/>
</g>
<!-- tablet -->
<g id="node7" class="node">
<title>tablet</title>
<ellipse fill="none" stroke="black" cx="39.91" cy="-334.78" rx="39.83" ry="35.21"/>
<text text-anchor="start" x="20.77" y="-344.58" font-family="Times,serif" font-size="14.00">Tablet </text>
<text text-anchor="start" x="19.69" y="-330.58" font-family="Times,serif" font-size="14.00"> Apple </text>
<text text-anchor="start" x="25.72" y="-316.58" font-family="Times,serif" font-size="14.00"> iPad</text>
</g>
<!-- midi&#45;&gt;tablet -->
<g id="edge13" class="edge">
<title>midi&#45;&gt;tablet</title>
<path fill="none" stroke="blue" stroke-dasharray="5,2" d="M414.84,-436.93C330.82,-430.86 196.3,-414.46 88.91,-370.13 85.19,-368.59 81.46,-366.73 77.82,-364.68"/>
<polygon fill="blue" stroke="blue" points="414.62,-440.42 424.83,-437.62 415.1,-433.44 414.62,-440.42"/>
<polygon fill="blue" stroke="blue" points="79.37,-361.52 69.02,-359.26 75.7,-367.48 79.37,-361.52"/>
</g>
<!-- moog -->
<g id="node8" class="node">
<title>moog</title>
<ellipse fill="none" stroke="black" cx="645.91" cy="-334.78" rx="73.42" ry="35.21"/>
<text text-anchor="start" x="601.97" y="-344.58" font-family="Times,serif" font-size="14.00">Modular Synth </text>
<text text-anchor="start" x="625.69" y="-330.58" font-family="Times,serif" font-size="14.00"> Moog </text>
<text text-anchor="start" x="614.81" y="-316.58" font-family="Times,serif" font-size="14.00"> Mother 32</text>
</g>
<!-- midi&#45;&gt;moog -->
<g id="edge14" class="edge">
<title>midi&#45;&gt;moog</title>
<path fill="none" stroke="blue" stroke-dasharray="5,2" d="M535.38,-412.43C554.18,-399.39 576.71,-383.76 596.51,-370.03"/>
<polygon fill="blue" stroke="blue" points="598.59,-372.85 604.81,-364.28 594.6,-367.1 598.59,-372.85"/>
</g>
<!-- tb03 -->
<g id="node9" class="node">
<title>tb03</title>
<ellipse fill="none" stroke="black" cx="500.91" cy="-334.78" rx="53.21" ry="35.21"/>
<text text-anchor="start" x="471.36" y="-344.58" font-family="Times,serif" font-size="14.00">Bass Line </text>
<text text-anchor="start" x="477.19" y="-330.58" font-family="Times,serif" font-size="14.00"> Roland </text>
<text text-anchor="start" x="481.01" y="-316.58" font-family="Times,serif" font-size="14.00"> TB&#45;03</text>
</g>
<!-- midi&#45;&gt;tb03 -->
<g id="edge16" class="edge">
<title>midi&#45;&gt;tb03</title>
<path fill="none" stroke="blue" stroke-dasharray="5,2" d="M497.48,-395.73C497.77,-390.68 498.06,-385.53 498.35,-380.48"/>
<polygon fill="blue" stroke="blue" points="493.97,-395.73 496.9,-405.91 500.96,-396.13 493.97,-395.73"/>
<polygon fill="blue" stroke="blue" points="501.86,-380.5 498.94,-370.32 494.87,-380.1 501.86,-380.5"/>
</g>
<!-- tr08 -->
<g id="node10" class="node">
<title>tr08</title>
<ellipse fill="none" stroke="black" cx="186.91" cy="-334.78" rx="88.72" ry="35.21"/>
<text text-anchor="start" x="132.08" y="-344.58" font-family="Times,serif" font-size="14.00">Rhythm Composer </text>
<text text-anchor="start" x="163.19" y="-330.58" font-family="Times,serif" font-size="14.00"> Roland </text>
<text text-anchor="start" x="167.01" y="-316.58" font-family="Times,serif" font-size="14.00"> TR&#45;08</text>
</g>
<!-- midi&#45;&gt;tr08 -->
<g id="edge18" class="edge">
<title>midi&#45;&gt;tr08</title>
<path fill="none" stroke="blue" stroke-dasharray="5,2" d="M427.25,-418.08C386.05,-404.38 332.39,-386.41 284.91,-370.13 277.4,-367.56 269.56,-364.85 261.74,-362.13"/>
<polygon fill="blue" stroke="blue" points="426.31,-421.46 436.9,-421.29 428.52,-414.82 426.31,-421.46"/>
<polygon fill="blue" stroke="blue" points="262.83,-358.8 252.24,-358.82 260.53,-365.41 262.83,-358.8"/>
</g>
<!-- sh01 -->
<g id="node11" class="node">
<title>sh01</title>
<ellipse fill="none" stroke="black" cx="361.91" cy="-334.78" rx="67.93" ry="35.21"/>
<text text-anchor="start" x="321.86" y="-344.58" font-family="Times,serif" font-size="14.00">Classic Synth </text>
<text text-anchor="start" x="338.19" y="-330.58" font-family="Times,serif" font-size="14.00"> Roland </text>
<text text-anchor="start" x="336.83" y="-316.58" font-family="Times,serif" font-size="14.00"> SH&#45;01A</text>
</g>
<!-- midi&#45;&gt;sh01 -->
<g id="edge20" class="edge">
<title>midi&#45;&gt;sh01</title>
<path fill="none" stroke="blue" stroke-dasharray="5,2" d="M449.88,-405.03C435.97,-394.08 420.66,-382.03 406.76,-371.08"/>
<polygon fill="blue" stroke="blue" points="447.84,-407.88 457.87,-411.32 452.17,-402.38 447.84,-407.88"/>
<polygon fill="blue" stroke="blue" points="408.79,-368.22 398.76,-364.79 404.46,-373.72 408.79,-368.22"/>
</g>
<!-- mic -->
<g id="node6" class="node">
<title>mic</title>
<ellipse fill="none" stroke="black" cx="494.91" cy="-654.91" rx="90.51" ry="35.21"/>
<text text-anchor="start" x="438.92" y="-664.71" font-family="Times,serif" font-size="14.00">Studio Microphone </text>
<text text-anchor="start" x="469.25" y="-650.71" font-family="Times,serif" font-size="14.00"> Samson </text>
<text text-anchor="start" x="469.7" y="-636.71" font-family="Times,serif" font-size="14.00"> G&#45;Track</text>
</g>
<!-- mic&#45;&gt;usb -->
<g id="edge9" class="edge">
<title>mic&#45;&gt;usb</title>
<path fill="none" stroke="red" stroke-dasharray="5,2" d="M494.91,-619.33C494.91,-611.2 494.91,-602.42 494.91,-593.91"/>
<polygon fill="red" stroke="red" points="498.42,-593.74 494.91,-583.74 491.42,-593.74 498.42,-593.74"/>
</g>
<!-- tablet&#45;&gt;keys_combo -->
<g id="edge33" class="edge">
<title>tablet&#45;&gt;keys_combo</title>
<path fill="none" stroke="green" stroke-dasharray="5,2" d="M50.28,-300.55C68.66,-241.62 106.76,-119.46 125.31,-59.99"/>
<polygon fill="green" stroke="green" points="128.69,-60.92 128.33,-50.33 122.01,-58.83 128.69,-60.92"/>
</g>
<!-- mix -->
<g id="node12" class="node">
<title>mix</title>
<ellipse fill="none" stroke="black" cx="429.91" cy="-228.07" rx="65.41" ry="35.21"/>
<text text-anchor="start" x="391.81" y="-237.87" font-family="Times,serif" font-size="14.00">Audio Mixer </text>
<text text-anchor="start" x="405.43" y="-223.87" font-family="Times,serif" font-size="14.00"> Mackie </text>
<text text-anchor="start" x="397.24" y="-209.87" font-family="Times,serif" font-size="14.00"> ProFX 8v2</text>
</g>
<!-- moog&#45;&gt;mix -->
<g id="edge22" class="edge">
<title>moog&#45;&gt;mix</title>
<path fill="none" stroke="green" stroke-dasharray="5,2" d="M595,-309.09C562.62,-293.4 520.64,-273.05 487.11,-256.79"/>
<polygon fill="green" stroke="green" points="488.42,-253.54 477.9,-252.33 485.37,-259.84 488.42,-253.54"/>
</g>
<!-- oscilloscope -->
<g id="node19" class="node">
<title>oscilloscope</title>
<ellipse fill="none" stroke="black" cx="645.91" cy="-228.07" rx="64.85" ry="35.21"/>
<text text-anchor="start" x="608.01" y="-237.87" font-family="Times,serif" font-size="14.00">Oscilloscope </text>
<text text-anchor="start" x="625.3" y="-223.87" font-family="Times,serif" font-size="14.00"> Owon </text>
<text text-anchor="start" x="610.72" y="-209.87" font-family="Times,serif" font-size="14.00"> MSO8202T</text>
</g>
<!-- moog&#45;&gt;oscilloscope -->
<g id="edge34" class="edge">
<title>moog&#45;&gt;oscilloscope</title>
<path fill="none" stroke="green" stroke-dasharray="5,2" d="M645.91,-299.2C645.91,-291.07 645.91,-282.29 645.91,-273.78"/>
<polygon fill="green" stroke="green" points="649.42,-273.61 645.91,-263.61 642.42,-273.61 649.42,-273.61"/>
</g>
<!-- tb03&#45;&gt;mix -->
<g id="edge23" class="edge">
<title>tb03&#45;&gt;mix</title>
<path fill="none" stroke="green" stroke-dasharray="5,2" d="M479.61,-302.36C472.72,-292.19 464.96,-280.75 457.67,-269.99"/>
<polygon fill="green" stroke="green" points="460.45,-267.86 451.94,-261.55 454.66,-271.79 460.45,-267.86"/>
</g>
<!-- tr08&#45;&gt;mix -->
<g id="edge24" class="edge">
<title>tr08&#45;&gt;mix</title>
<path fill="none" stroke="green" stroke-dasharray="5,2" d="M246.05,-308.3C283.74,-292.06 332.41,-271.08 370.21,-254.8"/>
<polygon fill="green" stroke="green" points="371.77,-257.93 379.57,-250.76 369,-251.5 371.77,-257.93"/>
</g>
<!-- sh01&#45;&gt;mix -->
<g id="edge25" class="edge">
<title>sh01&#45;&gt;mix</title>
<path fill="none" stroke="green" stroke-dasharray="5,2" d="M383.24,-300.93C389.57,-291.19 396.59,-280.39 403.21,-270.19"/>
<polygon fill="green" stroke="green" points="406.15,-272.09 408.66,-261.79 400.28,-268.27 406.15,-272.09"/>
</g>
<!-- mix&#45;&gt;snd -->
<g id="edge21" class="edge">
<title>mix&#45;&gt;snd</title>
<path fill="none" stroke="green" stroke-dasharray="5,2" d="M429.91,-192.49C429.91,-184.36 429.91,-175.58 429.91,-167.07"/>
<polygon fill="green" stroke="green" points="433.42,-166.9 429.91,-156.9 426.42,-166.9 433.42,-166.9"/>
</g>
</g>
</svg>
