<?xml version="1.0" encoding="UTF-8" standalone="no"?>
<!DOCTYPE svg PUBLIC "-//W3C//DTD SVG 1.1//EN"
 "http://www.w3.org/Graphics/SVG/1.1/DTD/svg11.dtd">
<!-- Generated by graphviz version 2.43.0 (0)
 -->
<!-- Title: G Pages: 1 -->
<svg width="891pt" height="615pt"
 viewBox="0.00 0.00 890.66 614.84" xmlns="http://www.w3.org/2000/svg" xmlns:xlink="http://www.w3.org/1999/xlink">
<g id="graph0" class="graph" transform="scale(1 1) rotate(0) translate(4 610.84)">
<title>G</title>
<polygon fill="white" stroke="transparent" points="-4,4 -4,-610.84 886.66,-610.84 886.66,4 -4,4"/>
<!-- pc -->
<g id="node1" class="node">
<title>pc</title>
<ellipse fill="none" stroke="black" cx="766.91" cy="-571.49" rx="67.31" ry="35.21"/>
<text text-anchor="start" x="756.6" y="-581.29" font-family="Times,serif" font-size="14.00">PC </text>
<text text-anchor="start" x="746.69" y="-567.29" font-family="Times,serif" font-size="14.00"> Apple </text>
<text text-anchor="start" x="727.25" y="-553.29" font-family="Times,serif" font-size="14.00"> Macbook Pro</text>
</g>
<!-- usb -->
<g id="node2" class="node">
<title>usb</title>
<ellipse fill="none" stroke="black" cx="646.91" cy="-482.13" rx="27.12" ry="18"/>
<text text-anchor="middle" x="646.91" y="-477.93" font-family="Times,serif" font-size="14.00">USB</text>
</g>
<!-- pc&#45;&gt;usb -->
<g id="edge1" class="edge">
<title>pc&#45;&gt;usb</title>
<path fill="none" stroke="red" stroke-dasharray="5,2" d="M720.1,-536.41C704,-524.69 686.57,-512 672.76,-501.95"/>
<polygon fill="red" stroke="red" points="718.14,-539.31 728.29,-542.37 722.26,-533.65 718.14,-539.31"/>
<polygon fill="red" stroke="red" points="674.82,-499.12 664.68,-496.06 670.7,-504.78 674.82,-499.12"/>
</g>
<!-- snd -->
<g id="node3" class="node">
<title>snd</title>
<ellipse fill="none" stroke="black" cx="430.91" cy="-107.36" rx="60.62" ry="35.21"/>
<text text-anchor="start" x="395.91" y="-117.16" font-family="Times,serif" font-size="14.00">Sound Card </text>
<text text-anchor="start" x="405.05" y="-103.16" font-family="Times,serif" font-size="14.00"> Yamaha </text>
<text text-anchor="start" x="410.88" y="-89.16" font-family="Times,serif" font-size="14.00"> AGO6</text>
</g>
<!-- pc&#45;&gt;snd -->
<g id="edge3" class="edge">
<title>pc&#45;&gt;snd</title>
<path fill="none" stroke="green" stroke-dasharray="5,2" d="M822.35,-540.2C837.57,-529.41 852.69,-515.94 862.91,-500.13 884.89,-466.17 881.91,-451.58 881.91,-411.13 881.91,-411.13 881.91,-411.13 881.91,-319.78 881.91,-153.91 628.74,-117.91 501.77,-110.28"/>
<polygon fill="green" stroke="green" points="820.23,-537.41 813.92,-545.92 824.16,-543.21 820.23,-537.41"/>
<polygon fill="green" stroke="green" points="501.92,-106.78 491.74,-109.72 501.53,-113.77 501.92,-106.78"/>
</g>
<!-- keys -->
<g id="node4" class="node">
<title>keys</title>
<ellipse fill="none" stroke="black" cx="795.91" cy="-320.78" rx="58.11" ry="35.21"/>
<text text-anchor="start" x="763.84" y="-330.58" font-family="Times,serif" font-size="14.00">Keyboards </text>
<text text-anchor="start" x="766.36" y="-316.58" font-family="Times,serif" font-size="14.00"> Novation </text>
<text text-anchor="start" x="762.86" y="-302.58" font-family="Times,serif" font-size="14.00"> Impulse 61</text>
</g>
<!-- pc&#45;&gt;keys -->
<g id="edge5" class="edge">
<title>pc&#45;&gt;keys</title>
<path fill="none" stroke="red" stroke-dasharray="5,2" d="M756.77,-526.4C755.16,-517.74 753.76,-508.68 752.91,-500.13 748.28,-453.05 763.5,-400.56 777.09,-364.79"/>
<polygon fill="red" stroke="red" points="753.36,-527.2 758.72,-536.34 760.23,-525.85 753.36,-527.2"/>
<polygon fill="red" stroke="red" points="780.47,-365.75 780.87,-355.16 773.96,-363.19 780.47,-365.75"/>
</g>
<!-- launchpad -->
<g id="node13" class="node">
<title>launchpad</title>
<ellipse fill="none" stroke="black" cx="807.91" cy="-482.13" rx="46.4" ry="18"/>
<text text-anchor="middle" x="807.91" y="-477.93" font-family="Times,serif" font-size="14.00">launchpad</text>
</g>
<!-- pc&#45;&gt;launchpad -->
<g id="edge26" class="edge">
<title>pc&#45;&gt;launchpad</title>
<path fill="none" stroke="red" stroke-dasharray="5,2" d="M786.98,-527.73C789.9,-521.51 792.84,-515.26 795.54,-509.49"/>
<polygon fill="red" stroke="red" points="783.73,-526.42 782.65,-536.96 790.07,-529.4 783.73,-526.42"/>
<polygon fill="red" stroke="red" points="798.76,-510.87 799.85,-500.33 792.43,-507.89 798.76,-510.87"/>
</g>
<!-- midi -->
<g id="node5" class="node">
<title>midi</title>
<ellipse fill="none" stroke="black" cx="500.91" cy="-410.13" rx="27" ry="18"/>
<text text-anchor="middle" x="500.91" y="-405.93" font-family="Times,serif" font-size="14.00">midi</text>
</g>
<!-- usb&#45;&gt;midi -->
<g id="edge8" class="edge">
<title>usb&#45;&gt;midi</title>
<path fill="none" stroke="red" stroke-dasharray="5,2" d="M616.02,-466.32C591.24,-454.44 556.64,-437.85 531.85,-425.96"/>
<polygon fill="red" stroke="red" points="614.84,-469.64 625.37,-470.8 617.87,-463.32 614.84,-469.64"/>
<polygon fill="red" stroke="red" points="533.08,-422.67 522.55,-421.5 530.05,-428.98 533.08,-422.67"/>
</g>
<!-- guitar_combo -->
<g id="node14" class="node">
<title>guitar_combo</title>
<polygon fill="none" stroke="black" points="636.41,-36 539.42,-36 539.42,0 636.41,0 636.41,-36"/>
<text text-anchor="middle" x="587.91" y="-13.8" font-family="Times,serif" font-size="14.00">Guitar Combo</text>
</g>
<!-- snd&#45;&gt;guitar_combo -->
<g id="edge29" class="edge">
<title>snd&#45;&gt;guitar_combo</title>
<path fill="none" stroke="green" stroke-dasharray="5,2" d="M474.23,-82.25C497.37,-69.38 525.64,-53.65 548.2,-41.1"/>
<polygon fill="green" stroke="green" points="550.14,-44.02 557.18,-36.1 546.74,-37.91 550.14,-44.02"/>
</g>
<!-- keys_combo -->
<g id="node15" class="node">
<title>keys_combo</title>
<polygon fill="none" stroke="black" points="230.42,-36 141.41,-36 141.41,0 230.42,0 230.42,-36"/>
<text text-anchor="middle" x="185.91" y="-13.8" font-family="Times,serif" font-size="14.00">Keys Combo</text>
</g>
<!-- snd&#45;&gt;keys_combo -->
<g id="edge32" class="edge">
<title>snd&#45;&gt;keys_combo</title>
<path fill="none" stroke="green" stroke-dasharray="5,2" d="M379.85,-88.15C339,-73.58 281.85,-53.21 240.18,-38.35"/>
<polygon fill="green" stroke="green" points="241.33,-35.04 230.74,-34.98 238.98,-41.64 241.33,-35.04"/>
</g>
<!-- headphones -->
<g id="node16" class="node">
<title>headphones</title>
<polygon fill="none" stroke="black" points="364.62,-36 279.21,-36 279.21,0 364.62,0 364.62,-36"/>
<text text-anchor="middle" x="321.91" y="-13.8" font-family="Times,serif" font-size="14.00">Headphones</text>
</g>
<!-- snd&#45;&gt;headphones -->
<g id="edge31" class="edge">
<title>snd&#45;&gt;headphones</title>
<path fill="none" stroke="green" stroke-dasharray="5,2" d="M395.83,-78.23C381.5,-66.75 365.11,-53.62 351.42,-42.64"/>
<polygon fill="green" stroke="green" points="353.27,-39.64 343.28,-36.12 348.89,-45.11 353.27,-39.64"/>
</g>
<!-- monitors -->
<g id="node17" class="node">
<title>monitors</title>
<polygon fill="none" stroke="black" points="449.75,-36 382.08,-36 382.08,0 449.75,0 449.75,-36"/>
<text text-anchor="middle" x="415.91" y="-13.8" font-family="Times,serif" font-size="14.00">Monitors</text>
</g>
<!-- snd&#45;&gt;monitors -->
<g id="edge30" class="edge">
<title>snd&#45;&gt;monitors</title>
<path fill="none" stroke="green" stroke-dasharray="5,2" d="M425.03,-72.08C423.57,-63.57 422.02,-54.56 420.63,-46.43"/>
<polygon fill="green" stroke="green" points="424.04,-45.63 418.9,-36.36 417.14,-46.81 424.04,-45.63"/>
</g>
<!-- pa -->
<g id="node18" class="node">
<title>pa</title>
<polygon fill="none" stroke="black" points="521.91,-36 467.91,-36 467.91,0 521.91,0 521.91,-36"/>
<text text-anchor="middle" x="494.91" y="-13.8" font-family="Times,serif" font-size="14.00">PA</text>
</g>
<!-- snd&#45;&gt;pa -->
<g id="edge28" class="edge">
<title>snd&#45;&gt;pa</title>
<path fill="none" stroke="green" stroke-dasharray="5,2" d="M454.38,-74.32C461.59,-64.48 469.43,-53.79 476.27,-44.45"/>
<polygon fill="green" stroke="green" points="479.14,-46.45 482.23,-36.32 473.49,-42.32 479.14,-46.45"/>
</g>
<!-- midi&#45;&gt;keys -->
<g id="edge11" class="edge">
<title>midi&#45;&gt;keys</title>
<path fill="none" stroke="blue" stroke-dasharray="5,2" d="M536.99,-403.45C582.42,-395.68 662.46,-379.92 727.91,-356.13 733.33,-354.16 738.87,-351.87 744.34,-349.42"/>
<polygon fill="blue" stroke="blue" points="536.31,-400.02 527.03,-405.12 537.47,-406.92 536.31,-400.02"/>
<polygon fill="blue" stroke="blue" points="745.85,-352.58 753.44,-345.18 742.89,-346.23 745.85,-352.58"/>
</g>
<!-- tablet -->
<g id="node7" class="node">
<title>tablet</title>
<ellipse fill="none" stroke="black" cx="39.91" cy="-320.78" rx="39.83" ry="35.21"/>
<text text-anchor="start" x="20.77" y="-330.58" font-family="Times,serif" font-size="14.00">Tablet </text>
<text text-anchor="start" x="19.69" y="-316.58" font-family="Times,serif" font-size="14.00"> Apple </text>
<text text-anchor="start" x="25.72" y="-302.58" font-family="Times,serif" font-size="14.00"> iPad</text>
</g>
<!-- midi&#45;&gt;tablet -->
<g id="edge13" class="edge">
<title>midi&#45;&gt;tablet</title>
<path fill="none" stroke="blue" stroke-dasharray="5,2" d="M464.02,-406.66C376.24,-400.41 157.17,-382.58 88.91,-356.13 84.99,-354.61 81.08,-352.71 77.28,-350.59"/>
<polygon fill="blue" stroke="blue" points="463.84,-410.15 474.06,-407.36 464.33,-403.17 463.84,-410.15"/>
<polygon fill="blue" stroke="blue" points="79.01,-347.55 68.66,-345.32 75.36,-353.52 79.01,-347.55"/>
</g>
<!-- moog -->
<g id="node8" class="node">
<title>moog</title>
<ellipse fill="none" stroke="black" cx="645.91" cy="-320.78" rx="73.42" ry="35.21"/>
<text text-anchor="start" x="601.97" y="-330.58" font-family="Times,serif" font-size="14.00">Modular Synth </text>
<text text-anchor="start" x="625.69" y="-316.58" font-family="Times,serif" font-size="14.00"> Moog </text>
<text text-anchor="start" x="614.81" y="-302.58" font-family="Times,serif" font-size="14.00"> Mother 32</text>
</g>
<!-- midi&#45;&gt;moog -->
<g id="edge14" class="edge">
<title>midi&#45;&gt;moog</title>
<path fill="none" stroke="blue" stroke-dasharray="5,2" d="M520.47,-397.35C538.79,-386.31 567.04,-369.29 592.09,-354.2"/>
<polygon fill="blue" stroke="blue" points="594.04,-357.11 600.8,-348.96 590.43,-351.12 594.04,-357.11"/>
</g>
<!-- tb03 -->
<g id="node9" class="node">
<title>tb03</title>
<ellipse fill="none" stroke="black" cx="500.91" cy="-320.78" rx="53.21" ry="35.21"/>
<text text-anchor="start" x="471.36" y="-330.58" font-family="Times,serif" font-size="14.00">Bass Line </text>
<text text-anchor="start" x="477.19" y="-316.58" font-family="Times,serif" font-size="14.00"> Roland </text>
<text text-anchor="start" x="481.01" y="-302.58" font-family="Times,serif" font-size="14.00"> TB&#45;03</text>
</g>
<!-- midi&#45;&gt;tb03 -->
<g id="edge16" class="edge">
<title>midi&#45;&gt;tb03</title>
<path fill="none" stroke="blue" stroke-dasharray="5,2" d="M500.91,-381.87C500.91,-376.94 500.91,-371.69 500.91,-366.42"/>
<polygon fill="blue" stroke="blue" points="497.42,-381.87 500.91,-391.87 504.42,-381.87 497.42,-381.87"/>
<polygon fill="blue" stroke="blue" points="504.42,-366.34 500.91,-356.34 497.42,-366.34 504.42,-366.34"/>
</g>
<!-- tr08 -->
<g id="node10" class="node">
<title>tr08</title>
<ellipse fill="none" stroke="black" cx="186.91" cy="-320.78" rx="88.72" ry="35.21"/>
<text text-anchor="start" x="132.08" y="-330.58" font-family="Times,serif" font-size="14.00">Rhythm Composer </text>
<text text-anchor="start" x="163.19" y="-316.58" font-family="Times,serif" font-size="14.00"> Roland </text>
<text text-anchor="start" x="167.01" y="-302.58" font-family="Times,serif" font-size="14.00"> TR&#45;08</text>
</g>
<!-- midi&#45;&gt;tr08 -->
<g id="edge18" class="edge">
<title>midi&#45;&gt;tr08</title>
<path fill="none" stroke="blue" stroke-dasharray="5,2" d="M465.45,-401.54C422.43,-392.07 347.83,-374.83 284.91,-356.13 277.03,-353.79 268.84,-351.19 260.7,-348.5"/>
<polygon fill="blue" stroke="blue" points="464.91,-405 475.43,-403.72 466.41,-398.16 464.91,-405"/>
<polygon fill="blue" stroke="blue" points="261.8,-345.17 251.2,-345.31 259.57,-351.81 261.8,-345.17"/>
</g>
<!-- sh01 -->
<g id="node11" class="node">
<title>sh01</title>
<ellipse fill="none" stroke="black" cx="361.91" cy="-320.78" rx="67.93" ry="35.21"/>
<text text-anchor="start" x="321.86" y="-330.58" font-family="Times,serif" font-size="14.00">Classic Synth </text>
<text text-anchor="start" x="338.19" y="-316.58" font-family="Times,serif" font-size="14.00"> Roland </text>
<text text-anchor="start" x="336.83" y="-302.58" font-family="Times,serif" font-size="14.00"> SH&#45;01A</text>
</g>
<!-- midi&#45;&gt;sh01 -->
<g id="edge20" class="edge">
<title>midi&#45;&gt;sh01</title>
<path fill="none" stroke="blue" stroke-dasharray="5,2" d="M473.38,-391.83C456.15,-381 433.43,-366.72 412.99,-353.88"/>
<polygon fill="blue" stroke="blue" points="471.55,-394.81 481.88,-397.17 475.27,-388.88 471.55,-394.81"/>
<polygon fill="blue" stroke="blue" points="414.73,-350.83 404.4,-348.47 411,-356.76 414.73,-350.83"/>
</g>
<!-- mic -->
<g id="node6" class="node">
<title>mic</title>
<ellipse fill="none" stroke="black" cx="646.91" cy="-571.49" rx="27" ry="18"/>
<text text-anchor="middle" x="646.91" y="-567.29" font-family="Times,serif" font-size="14.00">mic</text>
</g>
<!-- mic&#45;&gt;usb -->
<g id="edge9" class="edge">
<title>mic&#45;&gt;usb</title>
<path fill="none" stroke="red" stroke-dasharray="5,2" d="M646.91,-553.23C646.91,-541.02 646.91,-524.41 646.91,-510.42"/>
<polygon fill="red" stroke="red" points="650.42,-510.35 646.91,-500.35 643.42,-510.35 650.42,-510.35"/>
</g>
<!-- tablet&#45;&gt;keys_combo -->
<g id="edge33" class="edge">
<title>tablet&#45;&gt;keys_combo</title>
<path fill="none" stroke="green" stroke-dasharray="5,2" d="M55.4,-287.87C84.41,-228.11 146.41,-100.38 173.18,-45.24"/>
<polygon fill="green" stroke="green" points="176.39,-46.64 177.6,-36.12 170.09,-43.59 176.39,-46.64"/>
</g>
<!-- mix -->
<g id="node12" class="node">
<title>mix</title>
<ellipse fill="none" stroke="black" cx="430.91" cy="-214.07" rx="27" ry="18"/>
<text text-anchor="middle" x="430.91" y="-209.87" font-family="Times,serif" font-size="14.00">mix</text>
</g>
<!-- moog&#45;&gt;mix -->
<g id="edge22" class="edge">
<title>moog&#45;&gt;mix</title>
<path fill="none" stroke="green" stroke-dasharray="5,2" d="M595.24,-295.09C553.59,-274.81 495.98,-246.75 461.2,-229.81"/>
<polygon fill="green" stroke="green" points="462.55,-226.58 452.02,-225.35 459.48,-232.87 462.55,-226.58"/>
</g>
<!-- oscilloscope -->
<g id="node19" class="node">
<title>oscilloscope</title>
<ellipse fill="none" stroke="black" cx="645.91" cy="-214.07" rx="64.85" ry="35.21"/>
<text text-anchor="start" x="608.01" y="-223.87" font-family="Times,serif" font-size="14.00">Oscilloscope </text>
<text text-anchor="start" x="625.3" y="-209.87" font-family="Times,serif" font-size="14.00"> Owon </text>
<text text-anchor="start" x="610.72" y="-195.87" font-family="Times,serif" font-size="14.00"> MSO8202T</text>
</g>
<!-- moog&#45;&gt;oscilloscope -->
<g id="edge34" class="edge">
<title>moog&#45;&gt;oscilloscope</title>
<path fill="none" stroke="green" stroke-dasharray="5,2" d="M645.91,-285.2C645.91,-277.07 645.91,-268.29 645.91,-259.78"/>
<polygon fill="green" stroke="green" points="649.42,-259.61 645.91,-249.61 642.42,-259.61 649.42,-259.61"/>
</g>
<!-- tb03&#45;&gt;mix -->
<g id="edge23" class="edge">
<title>tb03&#45;&gt;mix</title>
<path fill="none" stroke="green" stroke-dasharray="5,2" d="M479.72,-288.08C469.26,-272.42 456.83,-253.84 447.14,-239.34"/>
<polygon fill="green" stroke="green" points="449.97,-237.27 441.5,-230.9 444.15,-241.16 449.97,-237.27"/>
</g>
<!-- tr08&#45;&gt;mix -->
<g id="edge24" class="edge">
<title>tr08&#45;&gt;mix</title>
<path fill="none" stroke="green" stroke-dasharray="5,2" d="M246.29,-294.3C294.46,-273.62 360.5,-245.28 399.15,-228.7"/>
<polygon fill="green" stroke="green" points="401.01,-231.71 408.82,-224.55 398.25,-225.27 401.01,-231.71"/>
</g>
<!-- sh01&#45;&gt;mix -->
<g id="edge25" class="edge">
<title>sh01&#45;&gt;mix</title>
<path fill="none" stroke="green" stroke-dasharray="5,2" d="M383.37,-287.22C393.49,-271.85 405.38,-253.82 414.73,-239.63"/>
<polygon fill="green" stroke="green" points="417.89,-241.2 420.47,-230.92 412.04,-237.34 417.89,-241.2"/>
</g>
<!-- mix&#45;&gt;snd -->
<g id="edge21" class="edge">
<title>mix&#45;&gt;snd</title>
<path fill="none" stroke="green" stroke-dasharray="5,2" d="M430.91,-195.78C430.91,-184.16 430.91,-168.3 430.91,-153.26"/>
<polygon fill="green" stroke="green" points="434.42,-153.05 430.91,-143.05 427.42,-153.05 434.42,-153.05"/>
</g>
</g>
</svg>
